<svg width="20" height="22" viewBox="0 0 20 22" fill="none" xmlns="http://www.w3.org/2000/svg">
<path d="M12 7C12 6.46957 11.7893 5.96086 11.4142 5.58579C11.0391 5.21071 10.5304 5 10 5" stroke="black" stroke-width="2" stroke-linecap="round" stroke-linejoin="round"/>
<path d="M5.762 2.75273C6.60162 1.91494 7.67071 1.3448 8.83422 1.11435C9.99772 0.883889 11.2034 1.00345 12.299 1.45793C13.3946 1.91241 14.3309 2.6814 14.9896 3.66777C15.6483 4.65414 15.9999 5.81362 16 6.99973C16 8.84673 15.63 10.5637 14.993 11.9927M13.403 14.4127C12.436 15.4127 11.263 15.9997 10 15.9997M10 15.9997C6.686 15.9997 4 11.9697 4 6.99973C4 6.40673 4.086 5.83373 4.246 5.29273M10 15.9997V16.9997C10 17.5302 9.78929 18.0389 9.41421 18.4139C9.03914 18.789 8.53043 18.9997 8 18.9997H5C4.46957 18.9997 3.96086 19.2104 3.58579 19.5855C3.21071 19.9606 3 20.4693 3 20.9997M1 1.99973L19 19.9997" stroke="black" stroke-width="2" stroke-linecap="round" stroke-linejoin="round"/>
</svg>
