<svg width="15" height="22" viewBox="0 0 15 22" fill="none" xmlns="http://www.w3.org/2000/svg">
<path d="M10 7C10 6.46957 9.78929 5.96086 9.41421 5.58579C9.03914 5.21071 8.53043 5 8 5" stroke="black" stroke-width="2" stroke-linecap="round" stroke-linejoin="round"/>
<path d="M8 16C11.314 16 14 11.97 14 7C14 5.4087 13.3679 3.88258 12.2426 2.75736C11.1174 1.63214 9.5913 1 8 1C6.4087 1 4.88258 1.63214 3.75736 2.75736C2.63214 3.88258 2 5.4087 2 7C2 11.97 4.686 16 8 16ZM8 16V17C8 17.5304 7.78929 18.0391 7.41421 18.4142C7.03914 18.7893 6.53043 19 6 19H3C2.46957 19 1.96086 19.2107 1.58579 19.5858C1.21071 19.9609 1 20.4696 1 21" stroke="black" stroke-width="2" stroke-linecap="round" stroke-linejoin="round"/>
</svg>
