<svg width="24" height="18" viewBox="0 0 24 18" fill="none" xmlns="http://www.w3.org/2000/svg">
<path d="M17.2568 0.75H6.75684C3.44296 0.75 0.756836 3.43613 0.756836 6.75V14.25C0.756836 15.9068 2.10009 17.25 3.75684 17.25C5.41359 17.25 6.75684 15.9068 6.75684 14.25V12.75C8.27709 12.75 9.66309 12.1823 10.7198 11.25H13.2935C14.3502 12.1823 15.7366 12.75 17.2565 12.75V14.25C17.2565 15.9068 18.5997 17.25 20.2565 17.25C21.9132 17.25 23.2565 15.9068 23.2565 14.25V6.75C23.2568 3.43613 20.5707 0.75 17.2568 0.75Z" fill="white"/>
<path d="M17.2568 9C18.4995 9 19.5068 7.99264 19.5068 6.75C19.5068 5.50736 18.4995 4.5 17.2568 4.5C16.0142 4.5 15.0068 5.50736 15.0068 6.75C15.0068 7.99264 16.0142 9 17.2568 9Z" fill="black"/>
<path d="M20.25 18C18.1823 18 16.5 16.3177 16.5 14.25V13.4584C15.2261 13.3155 14.016 12.8115 13.0125 12H10.9875C9.984 12.8115 8.77425 13.3155 7.5 13.4584V14.25C7.5 16.3177 5.81775 18 3.75 18C1.68225 18 0 16.3177 0 14.25V6.75C0 3.02812 3.02812 0 6.75 0H17.25C20.9719 0 24 3.02812 24 6.75V14.25C24 16.3177 22.3177 18 20.25 18ZM10.7134 10.5H13.287C13.4696 10.5 13.6463 10.5668 13.7831 10.6875C14.7428 11.5339 15.9739 12 17.25 12C17.664 12 18 12.336 18 12.75V14.25C18 15.4909 19.0091 16.5 20.25 16.5C21.4909 16.5 22.5 15.4909 22.5 14.25V6.75C22.5 3.855 20.145 1.5 17.25 1.5H6.75C3.855 1.5 1.5 3.855 1.5 6.75V14.25C1.5 15.4909 2.50912 16.5 3.75 16.5C4.99088 16.5 6 15.4909 6 14.25V12.75C6 12.336 6.336 12 6.75 12C8.02613 12 9.25763 11.5339 10.2169 10.6875C10.3541 10.5668 10.5308 10.5 10.7134 10.5Z" fill="white"/>
<path d="M6.75 5.25C6.55462 5.25 6.36 5.17125 6.2175 5.02875C6.07875 4.89 6 4.69875 6 4.5C6 4.30125 6.07875 4.11 6.2175 3.97125C6.49875 3.69 7.00125 3.69 7.27875 3.97125C7.42125 4.11 7.5 4.30125 7.5 4.5C7.5 4.695 7.42125 4.89 7.27875 5.02875C7.14037 5.17125 6.945 5.25 6.75 5.25ZM6.75 9.75C6.55462 9.75 6.36 9.67125 6.2175 9.52875C6.07875 9.39 6 9.19875 6 9C6 8.80125 6.07875 8.61 6.2175 8.47125C6.49875 8.19 7.00125 8.19 7.27875 8.47125C7.42125 8.61 7.5 8.80125 7.5 9C7.5 9.19875 7.42125 9.39 7.27875 9.52875C7.14037 9.67125 6.945 9.75 6.75 9.75ZM4.5 7.5C4.30125 7.5 4.11 7.42125 3.97125 7.27875C3.82875 7.14 3.75 6.94875 3.75 6.75C3.75 6.55462 3.82875 6.36 3.9675 6.22125C4.24875 5.94 4.75125 5.94 5.02875 6.2175C5.17125 6.36 5.25 6.55462 5.25 6.75C5.25 6.945 5.17125 7.14 5.02875 7.27875C4.89038 7.42125 4.695 7.5 4.5 7.5ZM9 7.5C8.80462 7.5 8.61 7.42125 8.47125 7.2825C8.32875 7.14 8.25 6.945 8.25 6.75C8.25 6.55125 8.32875 6.36 8.4675 6.22125C8.74875 5.94 9.25125 5.94 9.52875 6.22125C9.67125 6.36 9.75 6.55125 9.75 6.75C9.75 6.945 9.67125 7.14 9.5325 7.27875C9.39038 7.42125 9.195 7.5 9 7.5ZM17.25 9.75C15.5959 9.75 14.25 8.40412 14.25 6.75C14.25 5.09588 15.5959 3.75 17.25 3.75C18.9041 3.75 20.25 5.09588 20.25 6.75C20.25 8.40412 18.9045 9.75 17.25 9.75ZM17.25 5.25C16.4227 5.25 15.75 5.92275 15.75 6.75C15.75 7.57725 16.4227 8.25 17.25 8.25C18.0773 8.25 18.75 7.57725 18.75 6.75C18.75 5.92275 18.0776 5.25 17.25 5.25Z" fill="black"/>
</svg>
