<svg width="25" height="18" viewBox="0 0 25 18" fill="none" xmlns="http://www.w3.org/2000/svg">
<path d="M20.5832 17.9999C18.5154 17.9999 16.8332 16.3177 16.8332 14.2499V13.4583C15.5593 13.3154 14.3492 12.8114 13.3456 11.9999H11.3206C10.3171 12.8114 9.10735 13.3154 7.83308 13.4583V14.2499C7.83308 16.3177 6.15082 17.9999 4.08305 17.9999C2.01528 17.9999 0.333008 16.3177 0.333008 14.2499V6.74982C0.333008 3.02791 3.36116 -0.000244141 7.08308 -0.000244141H17.5832C21.3051 -0.000244141 24.3333 3.02791 24.3333 6.74982V14.2499C24.3333 16.3177 22.651 17.9999 20.5832 17.9999ZM11.0461 10.4999H13.6198C13.8024 10.4999 13.979 10.5666 14.1159 10.6874C15.0755 11.5337 16.307 11.9999 17.5832 11.9999C17.9972 11.9999 18.3332 12.3359 18.3332 12.7499V14.2499C18.3332 15.4908 19.3423 16.4999 20.5832 16.4999C21.8241 16.4999 22.8332 15.4908 22.8332 14.2499V6.74982C22.8332 3.8548 20.4782 1.49977 17.5832 1.49977H7.08308C4.18805 1.49977 1.83302 3.8548 1.83302 6.74982V14.2499C1.83302 15.4908 2.84216 16.4999 4.08305 16.4999C5.32393 16.4999 6.33307 15.4908 6.33307 14.2499V12.7499C6.33307 12.3359 6.66907 11.9999 7.08308 11.9999C8.35921 11.9999 9.59073 11.5337 10.55 10.6874C10.6869 10.5666 10.8635 10.4999 11.0461 10.4999Z" fill="white"/>
<path d="M7.08206 5.24977C6.88668 5.24977 6.69206 5.17102 6.54956 5.02852C6.4108 4.88977 6.33205 4.69852 6.33205 4.49976C6.33205 4.30101 6.4108 4.10976 6.54956 3.97101C6.83081 3.68976 7.33331 3.68976 7.61082 3.97101C7.75332 4.10976 7.83207 4.30101 7.83207 4.49976C7.83207 4.69477 7.75332 4.88977 7.61082 5.02852C7.47207 5.17102 7.27706 5.24977 7.08206 5.24977ZM7.08206 9.74982C6.88668 9.74982 6.69206 9.67107 6.54956 9.52856C6.4108 9.38981 6.33205 9.19856 6.33205 8.99981C6.33205 8.80106 6.4108 8.60981 6.54956 8.47105C6.83081 8.1898 7.33331 8.1898 7.61082 8.47105C7.75332 8.60981 7.83207 8.80106 7.83207 8.99981C7.83207 9.19856 7.75332 9.38981 7.61082 9.52856C7.47207 9.67107 7.27706 9.74982 7.08206 9.74982ZM4.83204 7.49979C4.63329 7.49979 4.44203 7.42104 4.30328 7.27854C4.16078 7.13979 4.08203 6.94854 4.08203 6.74979C4.08203 6.55441 4.16078 6.35978 4.29953 6.22103C4.58079 5.93978 5.08329 5.93978 5.36079 6.21728C5.5033 6.35978 5.58205 6.55441 5.58205 6.74979C5.58205 6.94479 5.5033 7.13979 5.36079 7.27854C5.22204 7.42104 5.02704 7.49979 4.83204 7.49979ZM9.33208 7.49979C9.13671 7.49979 8.94208 7.42104 8.80333 7.28229C8.66083 7.13979 8.58208 6.94479 8.58208 6.74979C8.58208 6.55103 8.66083 6.35978 8.79958 6.22103C9.08083 5.93978 9.58334 5.93978 9.86084 6.22103C10.0033 6.35978 10.0821 6.55103 10.0821 6.74979C10.0821 6.94479 10.0033 7.13979 9.86459 7.27854C9.72209 7.42104 9.52709 7.49979 9.33208 7.49979ZM17.5822 9.74982C15.928 9.74982 14.5821 8.40393 14.5821 6.74979C14.5821 5.09564 15.928 3.74976 17.5822 3.74976C19.2363 3.74976 20.5822 5.09564 20.5822 6.74979C20.5822 8.40393 19.2363 9.74982 17.5822 9.74982ZM17.5822 5.24977C16.7549 5.24977 16.0822 5.92253 16.0822 6.74979C16.0822 7.57705 16.7549 8.2498 17.5822 8.2498C18.4094 8.2498 19.0822 7.57705 19.0822 6.74979C19.0822 5.92253 18.4094 5.24977 17.5822 5.24977Z" fill="white"/>
</svg>
