<svg width="163" height="84" viewBox="0 0 163 84" fill="none" xmlns="http://www.w3.org/2000/svg">
<path d="M102.732 83.411C99.9158 83.411 98.5231 81.9564 98.5231 78.9851V72.1142H95.2114V67.8121H98.5231V63.2625H105.487V67.8121H108.829V72.1142H105.487V77.7781C105.487 78.2423 105.58 78.5828 105.765 78.7994C105.951 79.0161 106.323 79.1399 106.911 79.1399H108.829V83.411H102.732Z" fill="white"/>
<path d="M92.1604 79.0157H92.996V83.2868H87.6726C86.2489 83.2868 85.4132 82.5749 85.1656 81.1203C84.6704 81.7393 83.8348 82.2964 82.6586 82.7916C81.4825 83.3177 41.8973 83.5654 39.8545 83.5654H39.4831C37.0071 83.5654 35.1501 83.1011 33.9431 82.1107C32.736 81.1512 32.1479 79.9132 32.1479 78.4276V78.211C32.1479 76.7873 32.6432 75.6731 33.6645 74.9302C34.7168 74.1874 36.4191 73.7232 38.7713 73.5065L83.9895 72.8256C84.6704 72.7637 85.0109 72.4852 85.0109 72.0209C85.0109 71.7424 84.918 71.5567 84.7942 71.4019C84.6704 71.2472 84.3609 70.9996 83.6491 70.9377C82.411 70.8139 44.0947 70.721 42.8877 70.721L32.1479 70.752V67.0999H43.5686C45.3327 67.0999 84.8252 67.1927 86.0941 67.4094C87.3321 67.626 88.2916 67.8736 88.9725 68.2141C89.6224 68.5236 90.1486 68.9259 90.52 69.4211C90.8914 69.9163 91.139 70.3496 91.2009 70.752C91.2938 71.1543 91.3247 71.6186 91.3247 72.1757V78.211C91.3247 78.7371 91.6032 79.0157 92.1604 79.0157ZM85.0109 76.2921V75.7969L40.7521 76.7563C39.8545 76.8801 39.2665 77.0658 38.8951 77.2825C38.5546 77.4682 38.3689 77.7777 38.3689 78.211V78.2419C38.3689 78.7371 38.5856 79.1704 39.0498 79.5109C39.4831 79.8513 40.2259 80.037 41.2473 80.037C42.9496 80.037 82.2872 79.6656 83.3705 78.8919C84.4538 78.1181 85.0109 77.2515 85.0109 76.2921Z" fill="white"/>
<path d="M0 83.5655V61.8694H20.2414C23.3983 61.8694 25.6267 62.3027 26.9267 63.2312C28.2575 64.1597 28.9075 65.3668 28.9075 66.8214V67.2238C28.9075 67.8737 28.7527 68.4927 28.5051 69.0189C28.2266 69.545 27.8861 69.9783 27.4219 70.2878C26.9886 70.6283 26.5862 70.8759 26.2148 71.0306C25.8744 71.2163 25.5029 71.3711 25.1315 71.4639C25.6577 71.5568 26.1529 71.7425 26.6481 71.9591C27.1433 72.1758 27.6695 72.4853 28.2575 72.8567C28.8456 73.2591 29.3408 73.8162 29.6812 74.528C30.0526 75.2089 30.2383 76.0136 30.2383 76.9112V77.3135C30.2383 81.4918 26.9576 83.5655 20.4271 83.5655H0ZM7.39709 66.45V69.9783H18.9725C20.7057 69.9783 21.5413 69.3903 21.5413 68.2142V68.1523C21.5413 67.0071 20.7057 66.45 18.9725 66.45H7.39709ZM19.6224 74.5899H7.39709V78.8301H19.6224C20.7057 78.8301 21.4794 78.6134 21.9127 78.1801C22.3151 77.7778 22.5317 77.2826 22.5317 76.6945V76.6017C22.5317 75.2399 21.5723 74.5899 19.6224 74.5899Z" fill="white"/>
<path d="M57.4254 37.3877H64.3583L55.6303 55.0912C54.7946 56.7316 53.928 57.9386 53.0305 58.6814C52.1329 59.4242 50.9259 59.7647 49.5022 59.7647H39.4434V54.8436H47.3666C47.8928 54.8436 48.1713 54.6579 48.1713 54.3174C48.1713 54.1317 47.8928 53.5437 47.3976 52.5533L39.4434 37.3877H46.8714L52.2258 48.6226L57.4254 37.3877Z" fill="white"/>
<path d="M0.464844 52.6466V30.9814H10.957L19.0969 44.4757L27.2986 30.9814H37.4194V52.6466H30.1151V37.6357L20.8301 52.6466H16.8684L7.55243 37.6357V52.6466H0.464844Z" fill="white"/>
<path d="M115.454 15.9087C115.454 16.404 115.392 16.8682 115.237 17.3325C115.082 17.8277 114.773 18.3229 114.278 18.88C113.751 19.468 113.102 19.9323 112.297 20.3656C111.492 20.7679 110.378 21.1393 108.892 21.4179C107.438 21.6964 105.735 21.8202 103.786 21.8202H101.99C99.7929 21.8202 97.905 21.6036 96.2956 21.1703C94.6862 20.737 93.4482 20.118 92.5506 19.3442C91.684 18.5705 91.034 17.7348 90.6007 16.8373C90.1984 15.9397 90.0127 14.9183 90.0127 13.8351V13.2161C90.0127 12.1328 90.1984 11.1734 90.5698 10.2758C90.9412 9.37826 91.5602 8.57356 92.4268 7.7998C93.2625 7.02605 94.5005 6.43799 96.0789 6.00469C97.6883 5.57139 99.5763 5.35474 101.805 5.35474H103.724C111.616 5.35474 115.547 8.14025 115.547 13.7732V14.8255H96.9146C97.3788 16.8682 99.3906 17.8896 102.95 17.8896H102.981C103.847 17.8896 104.652 17.8277 105.333 17.7039C106.014 17.5801 106.54 17.4563 106.911 17.2706C107.314 17.1158 107.623 16.9301 107.871 16.7444C108.088 16.5278 108.273 16.373 108.335 16.2492C108.428 16.1254 108.49 16.0016 108.49 15.8778H115.454V15.9087ZM102.733 8.97591H102.702C99.5144 8.97591 97.6264 9.84251 97.0384 11.6067H108.428C107.933 9.84251 106.045 8.97591 102.733 8.97591Z" fill="white"/>
<path d="M65.7729 21.6032V0H72.7986V12.2253L79.7005 5.97339H87.5309L79.4839 13.03L88.4904 21.6032H80.2267L72.7986 14.4228V21.6032H65.7729Z" fill="white"/>
<path d="M62.6869 17.4872H63.5535V21.8512H58.1373C56.6516 21.8512 55.816 21.1084 55.5684 19.6537C55.0732 20.2418 54.2375 20.8298 53.0305 21.356C51.8234 21.8821 50.1831 22.1297 48.1094 22.1297H47.738C45.2001 22.1297 43.3121 21.6345 42.0741 20.6441C40.8361 19.6537 40.248 18.4157 40.248 16.8992V16.6825C40.248 15.2278 40.7433 14.1136 41.7956 13.3399C42.8479 12.5971 44.5811 12.1019 46.9952 11.8852L54.3923 11.2043C55.0422 11.1115 55.3827 10.8329 55.3827 10.3687C55.3827 10.0901 55.3208 9.90441 55.197 9.71871C55.0732 9.56396 54.6708 9.40921 54.0209 9.28541C53.3709 9.13066 52.4115 9.03781 51.2044 9.03781L40.248 9.06876V5.35474H51.8853C53.6804 5.35474 55.2279 5.44759 56.4969 5.66424C57.7968 5.88089 58.7563 6.15944 59.4372 6.46894C60.1181 6.80939 60.6442 7.21175 61.0156 7.70695C61.418 8.2331 61.6346 8.66641 61.7275 9.06876C61.7894 9.47111 61.8513 9.96631 61.8513 10.5234V16.6825C61.8513 17.2087 62.1298 17.4872 62.6869 17.4872ZM55.3827 14.7017V14.2065L49.0069 15.1969C48.1094 15.3207 47.4904 15.5064 47.119 15.723C46.7785 15.9397 46.5928 16.2492 46.5928 16.6825V16.7135C46.5928 17.2087 46.8095 17.642 47.2737 18.0134C47.738 18.3538 48.4808 18.5395 49.5331 18.5395C51.2354 18.5395 52.6591 18.1372 53.7423 17.3634C54.8565 16.5897 55.3827 15.723 55.3827 14.7017Z" fill="white"/>
<path d="M0.464844 21.6964V0.03125H10.957L19.0969 13.5255L27.2986 0.03125H37.4194V21.6964H30.1151V6.68554L20.8301 21.6964H16.8684L7.55243 6.68554V21.6964H0.464844Z" fill="white"/>
<path d="M162.907 77.8091C162.907 78.3043 162.845 78.7686 162.69 79.2328C162.535 79.7281 162.226 80.2233 161.731 80.7804C161.205 81.3684 160.555 81.8327 159.75 82.266C158.945 82.6683 157.831 83.0397 156.345 83.3183C154.891 83.5968 153.189 83.7206 151.239 83.7206H149.444C147.246 83.7206 145.358 83.504 143.749 83.0707C142.139 82.6374 140.901 82.0184 140.004 81.2446C139.137 80.4709 138.487 79.6352 138.054 78.7376C137.652 77.8401 137.466 76.8187 137.466 75.7355V75.1165C137.466 74.0332 137.652 73.0738 138.023 72.1762C138.394 71.2787 139.013 70.4739 139.88 69.7002C140.716 68.9264 141.954 68.3384 143.532 67.9051C145.141 67.4718 147.029 67.2551 149.258 67.2551H151.177C159.069 67.2551 163 70.0406 163 75.6736V76.7259H144.368C144.832 78.7686 146.844 79.79 150.403 79.79H150.434C151.301 79.79 152.105 79.728 152.786 79.6042C153.467 79.4804 153.993 79.3566 154.365 79.1709C154.767 79.0162 155.076 78.8305 155.324 78.6448C155.541 78.4281 155.726 78.2734 155.788 78.1496C155.881 78.0258 155.943 77.902 155.943 77.7782H162.907V77.8091ZM150.186 70.8763H150.155C146.968 70.8763 145.08 71.7429 144.492 73.5071H155.881C155.386 71.7429 153.498 70.8763 150.186 70.8763Z" fill="white"/>
<path d="M134.276 61.9004V83.5036H127.25V61.9004H134.276Z" fill="white"/>
<path d="M117.966 83.411C115.15 83.411 113.757 81.9564 113.757 78.9851V72.1142H110.445V67.8121H113.757V63.2625H120.721V67.8121H124.063V72.1142H120.721V77.7781C120.721 78.2423 120.814 78.5828 120.999 78.7994C121.185 79.0161 121.556 79.1399 122.144 79.1399H124.063V83.411H117.966Z" fill="white"/>
</svg>
