<svg width="194" height="22" viewBox="0 0 194 22" fill="none" xmlns="http://www.w3.org/2000/svg">
<path d="M12.254 16.264H11.792C10.054 16.264 8.514 16.088 7.15 15.758C5.808 15.406 4.73 14.966 3.916 14.438C3.124 13.91 2.464 13.294 1.958 12.59C1.452 11.864 1.1 11.182 0.902 10.544C0.726 9.884 0.638 9.224 0.638 8.542V7.97C0.638 7.288 0.704 6.65 0.858 6.012C1.012 5.396 1.342 4.714 1.848 4.01C2.354 3.306 3.014 2.69 3.806 2.184C4.598 1.656 5.698 1.238 7.106 0.885999C8.492 0.534 10.12 0.379999 11.968 0.379999H12.936C14.718 0.379999 16.302 0.511999 17.666 0.775999C19.03 1.062 20.108 1.392 20.878 1.81C21.648 2.206 22.286 2.69 22.77 3.24C23.276 3.812 23.606 4.318 23.76 4.78C23.936 5.242 24.024 5.704 24.024 6.188V6.21H18.458C17.886 4.758 15.906 4.032 12.496 4.032C8.25 4.032 6.116 5.418 6.116 8.168V8.41C6.116 9.532 6.644 10.5 7.678 11.314C8.734 12.128 10.318 12.524 12.452 12.524C13.376 12.524 14.234 12.458 15.004 12.348C15.796 12.216 16.412 12.062 16.874 11.886C17.336 11.71 17.732 11.512 18.062 11.292C18.37 11.094 18.612 10.896 18.744 10.742C18.854 10.566 18.92 10.434 18.92 10.346V10.302H12.342V7.398H24.156V16H20.372C20.372 16 20.35 14.614 20.328 13.602C18.634 15.384 15.95 16.264 12.254 16.264ZM31.3387 0.599999V3.768H26.3447V0.599999H31.3387ZM31.3387 4.846V15.956H26.3447V4.846H31.3387ZM41.0204 3.636C40.8884 3.768 40.8224 4.01 40.8224 4.34V4.956H78.6844V7.97H40.8224V15.956H35.8944V7.97H33.6064V4.956H35.8944V3.636C35.8944 1.7 37.3024 0.732 40.0964 0.732H78.6844V3.438H41.7684C41.3944 3.438 41.1524 3.504 41.0204 3.636ZM86.3039 15.89C84.3019 15.89 83.3119 14.856 83.3119 12.744V7.86H80.9579V4.802H83.3119V1.568H88.2619V4.802H90.6379V7.86H88.2619V11.886C88.2619 12.216 88.3279 12.458 88.4599 12.612C88.5919 12.766 88.8559 12.854 89.2739 12.854H90.6379V15.89H86.3039ZM104.651 5.176H109.579L103.375 17.76C102.781 18.926 102.165 19.784 101.527 20.312C100.889 20.84 100.031 21.082 99.0193 21.082H91.8693V17.584H97.5013C97.8753 17.584 98.0733 17.452 98.0733 17.21C98.0733 17.078 97.8753 16.66 97.5233 15.956L91.8693 5.176H97.1493L100.955 13.162L104.651 5.176ZM119.247 16.088C117.927 16.088 116.761 15.956 115.727 15.714C114.693 15.472 113.879 15.164 113.285 14.79C112.691 14.416 112.185 13.976 111.789 13.448C111.415 12.92 111.151 12.414 111.019 11.908C110.887 11.424 110.821 10.896 110.821 10.368V9.95C110.821 9.422 110.887 8.916 111.019 8.41C111.151 7.926 111.415 7.442 111.789 6.914C112.163 6.408 112.669 5.99 113.263 5.616C113.879 5.242 114.693 4.956 115.705 4.714C116.739 4.494 117.905 4.362 119.225 4.362H120.501C121.931 4.362 123.207 4.494 124.285 4.736C125.363 4.978 126.199 5.286 126.771 5.638C127.343 5.99 127.805 6.408 128.179 6.87C128.531 7.354 128.751 7.772 128.861 8.124C128.949 8.498 128.993 8.85 128.993 9.224V9.268H123.845C123.515 7.948 122.173 7.266 119.841 7.266H119.775C118.433 7.266 117.465 7.53 116.849 8.058C116.233 8.564 115.947 9.224 115.947 10.016V10.17C115.947 11.006 116.255 11.71 116.849 12.282C117.465 12.854 118.455 13.14 119.775 13.14H119.841C122.151 13.14 123.493 12.458 123.845 11.094H128.993V11.138C128.993 11.512 128.949 11.886 128.861 12.26C128.773 12.612 128.553 13.052 128.223 13.536C127.871 14.02 127.409 14.438 126.837 14.79C126.265 15.142 125.429 15.45 124.329 15.692C123.229 15.956 121.953 16.088 120.479 16.088H119.247ZM166.981 4.692C172.151 4.692 174.725 6.518 174.725 10.126V10.5C174.725 14.196 172.151 16.066 166.981 16.066H138.557C137.347 16.066 136.291 15.934 135.345 15.714C134.421 15.472 133.673 15.186 133.101 14.812C132.551 14.46 132.089 14.02 131.715 13.514C131.363 13.008 131.121 12.524 130.989 12.018C130.857 11.534 130.791 11.028 130.791 10.5V10.126C130.791 9.598 130.857 9.092 130.989 8.608C131.121 8.146 131.363 7.64 131.715 7.156C132.067 6.672 132.529 6.232 133.101 5.88C133.651 5.528 134.399 5.242 135.323 5.022C136.269 4.802 137.325 4.692 138.535 4.692H166.981ZM170.677 10.368V10.28C170.677 9.598 170.369 9.004 169.731 8.542C169.159 8.102 168.213 7.882 166.937 7.838C166.849 7.838 139.019 7.838 138.931 7.838H138.909C137.457 7.838 136.401 8.08 135.785 8.542C135.169 9.004 134.861 9.576 134.861 10.28V10.368C134.861 11.05 135.169 11.644 135.807 12.128C136.423 12.634 137.457 12.876 138.909 12.876C139.019 12.876 166.871 12.876 166.981 12.876C168.257 12.832 169.159 12.59 169.731 12.128C170.369 11.644 170.677 11.05 170.677 10.368ZM148.941 12.458L151.977 8.278H156.553L153.517 12.458H148.941ZM176.563 4.802H181.513V6.694C183.075 5.264 185.077 4.56 187.519 4.56H187.695C189.653 4.56 191.127 4.978 192.095 5.814C193.085 6.672 193.569 7.684 193.569 8.894V15.89H188.509V10.412C188.509 9.532 188.245 8.85 187.717 8.366C187.167 7.882 186.353 7.64 185.275 7.64C184.153 7.64 183.251 7.926 182.569 8.476C181.909 9.026 181.557 9.752 181.557 10.654V15.89H176.563V4.802Z" fill="white"/>
</svg>
