<svg width="108" height="151" viewBox="0 0 108 151" fill="none" xmlns="http://www.w3.org/2000/svg">
<path d="M99.3951 104.259L107.738 95.9578V8.30074L99.3951 0H10.5086L2.17188 8.30074V95.9578L10.5086 104.259L2.17188 112.559V142.353L10.5086 150.654H99.3951L107.738 142.353V112.559L99.3951 104.259Z" fill="white"/>
<line y1="103.82" x2="108" y2="103.82" stroke="#16181B" stroke-width="2" stroke-dasharray="7 7"/>
<path d="M45.26 130.635C45.62 131.025 45.8 131.535 45.8 132.165V135H42.545V133.155C42.545 132.525 42.38 132.06 42.05 131.775C41.72 131.49 41.165 131.34 40.37 131.34H36.14V135H32.9V124.68H41.255C44.255 124.68 45.755 125.58 45.755 127.365V127.53C45.755 128.625 45.11 129.375 43.835 129.795C44.42 129.96 44.9 130.23 45.26 130.635ZM42.365 128.04V128.025C42.365 127.725 42.26 127.485 42.05 127.305C41.84 127.125 41.51 127.02 41.06 127.02H36.14V129.06H41.06C41.51 129.06 41.84 128.955 42.05 128.775C42.26 128.595 42.365 128.34 42.365 128.04ZM57.827 132.975H58.247V135.09H55.622C54.902 135.09 54.497 134.73 54.377 134.025C54.137 134.31 53.732 134.595 53.147 134.85C52.562 135.105 51.767 135.225 50.762 135.225H50.582C49.352 135.225 48.437 134.985 47.837 134.505C47.237 134.025 46.952 133.425 46.952 132.69V132.585C46.952 131.88 47.192 131.34 47.702 130.965C48.212 130.605 49.052 130.365 50.222 130.26L53.807 129.93C54.122 129.885 54.287 129.75 54.287 129.525C54.287 129.39 54.257 129.3 54.197 129.21C54.137 129.135 53.942 129.06 53.627 129C53.312 128.925 52.847 128.88 52.262 128.88L46.952 128.895V127.095H52.592C53.462 127.095 54.212 127.14 54.827 127.245C55.457 127.35 55.922 127.485 56.252 127.635C56.582 127.8 56.837 127.995 57.017 128.235C57.212 128.49 57.317 128.7 57.362 128.895C57.392 129.09 57.422 129.33 57.422 129.6V132.585C57.422 132.84 57.557 132.975 57.827 132.975ZM54.287 131.625V131.385L51.197 131.865C50.762 131.925 50.462 132.015 50.282 132.12C50.117 132.225 50.027 132.375 50.027 132.585V132.6C50.027 132.84 50.132 133.05 50.357 133.23C50.582 133.395 50.942 133.485 51.452 133.485C52.277 133.485 52.967 133.29 53.492 132.915C54.032 132.54 54.287 132.12 54.287 131.625ZM62.9676 134.925C61.6026 134.925 60.9276 134.22 60.9276 132.78V129.45H59.3226V127.365H60.9276V125.16H64.3026V127.365H65.9226V129.45H64.3026V132.195C64.3026 132.42 64.3476 132.585 64.4376 132.69C64.5276 132.795 64.7076 132.855 64.9926 132.855H65.9226V134.925H62.9676ZM79.7971 132.21C79.7971 132.45 79.7671 132.675 79.6921 132.9C79.6171 133.14 79.4671 133.38 79.2271 133.65C78.9721 133.935 78.6571 134.16 78.2671 134.37C77.8771 134.565 77.3371 134.745 76.6171 134.88C75.9121 135.015 75.0871 135.075 74.1421 135.075H73.2721C72.2071 135.075 71.2921 134.97 70.5121 134.76C69.7321 134.55 69.1321 134.25 68.6971 133.875C68.2771 133.5 67.9621 133.095 67.7521 132.66C67.5571 132.225 67.4671 131.73 67.4671 131.205V130.905C67.4671 130.38 67.5571 129.915 67.7371 129.48C67.9171 129.045 68.2171 128.655 68.6371 128.28C69.0421 127.905 69.6421 127.62 70.4071 127.41C71.1871 127.2 72.1021 127.095 73.1821 127.095H74.1121C77.9371 127.095 79.8421 128.445 79.8421 131.175V131.685H70.8121C71.0371 132.675 72.0121 133.17 73.7371 133.17H73.7521C74.1721 133.17 74.5621 133.14 74.8921 133.08C75.2221 133.02 75.4771 132.96 75.6571 132.87C75.8521 132.795 76.0021 132.705 76.1221 132.615C76.2271 132.51 76.3171 132.435 76.3471 132.375C76.3921 132.315 76.4221 132.255 76.4221 132.195H79.7971V132.21ZM73.6321 128.85H73.6171C72.0721 128.85 71.1571 129.27 70.8721 130.125H76.3921C76.1521 129.27 75.2371 128.85 73.6321 128.85Z" fill="#16181B"/>
<path d="M55.5 91.3672C45.025 91.3637 34.98 87.201 27.5731 79.7941C20.1661 72.3872 16.0034 62.3422 16 51.8672C16.0034 41.3922 20.1661 31.3472 27.5731 23.9403C34.98 16.5333 45.025 12.3706 55.5 12.3672C65.975 12.3706 76.02 16.5333 83.4269 23.9403C90.8339 31.3472 94.9966 41.3922 95 51.8672C94.9966 62.3422 90.8339 72.3872 83.4269 79.7941C76.02 87.201 65.975 91.3637 55.5 91.3672ZM55.5 14.1615C48.0425 14.1615 40.7525 16.3729 34.5518 20.516C28.3511 24.6592 23.5183 30.548 20.6645 37.4378C17.8106 44.3276 17.0639 51.909 18.5188 59.2232C19.9737 66.5374 23.5648 73.2559 28.838 78.5292C34.1113 83.8024 40.8298 87.3935 48.144 88.8484C55.4582 90.3033 63.0395 89.5566 69.9294 86.7027C76.8192 83.8489 82.708 79.016 86.8512 72.8154C90.9943 66.6147 93.2057 59.3247 93.2057 51.8672C93.2057 41.867 89.2332 32.2764 82.162 25.2052C75.0908 18.134 65.5002 14.1615 55.5 14.1615Z" fill="#0AFF00"/>
<path d="M55.5103 81.7316C48.6002 81.7343 41.9029 79.3408 36.5598 74.9588C31.2167 70.5769 27.5584 64.4777 26.2084 57.7007C24.8583 50.9237 25.9001 43.8883 29.1561 37.7933C32.4121 31.6983 37.6809 26.921 44.0645 24.2755C50.4482 21.6299 57.5517 21.2798 64.1646 23.2849C70.7774 25.29 76.4904 29.5261 80.3299 35.2714C84.1694 41.0167 85.8979 47.9156 85.2207 54.7925C84.5436 61.6694 81.5027 68.0987 76.6164 72.9848C73.8509 75.7651 70.5617 77.9696 66.9389 79.471C63.3162 80.9723 59.4318 81.7407 55.5103 81.7316ZM55.5103 23.8448C49.9658 23.8448 44.5457 25.489 39.9356 28.5694C35.3254 31.6498 31.7322 36.0281 29.6104 41.1506C27.4886 46.2731 26.9334 51.9098 28.0151 57.3479C29.0968 62.7859 31.7668 67.781 35.6874 71.7017C39.608 75.6223 44.6032 78.2922 50.0412 79.3739C55.4792 80.4556 61.1159 79.9005 66.2384 77.7786C71.361 75.6568 75.7392 72.0636 78.8196 67.4535C81.9 62.8434 83.5442 57.4233 83.5442 51.8787C83.534 44.4468 80.5771 37.3222 75.322 32.0671C70.0668 26.8119 62.9422 23.8551 55.5103 23.8448Z" fill="#0AFF00"/>
<path d="M81.1569 26.2105C74.4306 19.4395 65.2919 15.6154 55.7482 15.5781V19.9854C62.038 20.0345 68.1727 21.9431 73.3804 25.4711C78.588 28.999 82.6357 33.9887 85.0142 39.8121C87.3926 45.6355 87.9955 52.0323 86.7469 58.1976C85.4984 64.3629 82.4541 70.021 77.9974 74.46C73.5406 78.8989 67.8705 81.9202 61.7006 83.1437C55.5308 84.3673 49.1369 83.7383 43.3237 81.3359C37.5104 78.9335 32.5377 74.8652 29.0312 69.6429C25.5248 64.4205 23.6413 58.2776 23.6179 51.9872H19.2109C19.2353 59.1541 21.381 66.1534 25.3774 72.1024C29.3739 78.0514 35.0422 82.6839 41.6676 85.4156C48.293 88.1474 55.5789 88.8562 62.6066 87.4525C69.6342 86.0489 76.0889 82.5958 81.1569 77.5285C84.5273 74.1595 87.201 70.1594 89.0251 65.7568C90.8493 61.3541 91.7882 56.6352 91.7882 51.8695C91.7882 47.1039 90.8493 42.3849 89.0251 37.9823C87.201 33.5796 84.5273 29.5795 81.1569 26.2105Z" fill="#9207FD"/>
<path d="M38.4766 47.6597H44.2931L38.9724 57.9689H41.3848L46.8262 47.1639V45.7656H38.4766V47.6597Z" fill="#0AFF00"/>
<path d="M54.6965 50.59C53.903 50.1416 53.0042 49.9165 52.0944 49.9384H51.5093L51.8579 47.6327H56.2403V45.7656H50.2518L49.4301 51.8932L49.9032 51.8306C50.383 51.7815 50.8654 51.7648 51.3474 51.7805C53.2772 51.7805 54.3105 52.5574 54.323 54.0235C54.3171 54.3292 54.2492 54.6304 54.1235 54.9087C53.9978 55.1871 53.8168 55.4366 53.5918 55.6419C53.3668 55.8473 53.1024 56.0042 52.8149 56.103C52.5275 56.2018 52.223 56.2404 51.9201 56.2164C51.1176 56.1791 50.3359 55.947 49.6418 55.5397L49.3305 55.3518L48.7578 57.0936L48.9446 57.2189C49.8604 57.7325 50.897 57.988 51.945 57.9582C52.5197 57.9993 53.0967 57.9215 53.6404 57.7296C54.1841 57.5378 54.683 57.2359 55.1064 56.8427C55.5298 56.4494 55.8687 55.973 56.1022 55.4429C56.3358 54.9128 56.459 54.3402 56.4644 53.7603C56.4774 53.1212 56.3203 52.4903 56.0095 51.9328C55.6986 51.3754 55.2453 50.9117 54.6965 50.59Z" fill="#0AFF00"/>
<path d="M68.2474 45.125L60.9609 58.6128H62.6792L69.9528 45.125H68.2474Z" fill="#0AFF00"/>
<path d="M69.4277 50.0266C67.5243 50.0266 66.2025 51.6908 66.2025 54.0701C66.2025 56.6704 67.7886 57.9705 69.3352 57.9705C70.8817 57.9705 72.5207 56.6704 72.5207 53.914C72.5207 51.5608 71.3443 50.0266 69.4277 50.0266ZM69.4277 56.3583C69.3037 56.3567 69.1812 56.3305 69.0677 56.2814C68.9542 56.2322 68.8518 56.1611 68.7668 56.0723C68.3071 55.4779 68.0902 54.7358 68.1588 53.9921C68.1588 52.8089 68.5421 51.6128 69.4806 51.6128C70.6041 51.6128 70.7231 53.251 70.7231 53.9531C70.7231 54.6551 70.4983 56.3583 69.3748 56.3583H69.4277ZM64.7353 48.9605C64.7353 46.5942 63.5324 45.125 61.6158 45.125C59.6992 45.125 58.3906 46.7632 58.3906 49.1295C58.3906 51.8208 59.9768 53.0299 61.5233 53.0299C63.0698 53.0299 64.7353 51.7688 64.7353 48.9605ZM61.563 46.6982C62.6865 46.6982 62.8054 48.3364 62.8054 49.0385C62.8054 49.7405 62.6865 51.4438 61.563 51.4438C61.309 51.4381 61.0673 51.3355 60.8888 51.1577C60.4442 50.5569 60.2375 49.8174 60.3072 49.0775C60.2412 47.8943 60.6377 46.6982 61.4969 46.6982H61.563Z" fill="#0AFF00"/>
</svg>
