<svg width="137" height="100" viewBox="0 0 137 100" fill="none" xmlns="http://www.w3.org/2000/svg">
<path d="M125.279 2.5L134.5 9.17375V90.8225L125.279 97.5H11.7215L2.5 90.8225V9.17374L11.7211 2.5H125.279Z" fill="white" stroke="#05FF00" stroke-width="5"/>
<path d="M22.355 37.18H22.04C20.855 37.18 19.805 37.06 18.875 36.835C17.96 36.595 17.225 36.295 16.67 35.935C16.13 35.575 15.68 35.155 15.335 34.675C14.99 34.18 14.75 33.715 14.615 33.28C14.495 32.83 14.435 32.38 14.435 31.915V31.525C14.435 31.06 14.48 30.625 14.585 30.19C14.69 29.77 14.915 29.305 15.26 28.825C15.605 28.345 16.055 27.925 16.595 27.58C17.135 27.22 17.885 26.935 18.845 26.695C19.79 26.455 20.9 26.35 22.16 26.35H22.82C24.035 26.35 25.115 26.44 26.045 26.62C26.975 26.815 27.71 27.04 28.235 27.325C28.76 27.595 29.195 27.925 29.525 28.3C29.87 28.69 30.095 29.035 30.2 29.35C30.32 29.665 30.38 29.98 30.38 30.31V30.325H26.585C26.195 29.335 24.845 28.84 22.52 28.84C19.625 28.84 18.17 29.785 18.17 31.66V31.825C18.17 32.59 18.53 33.25 19.235 33.805C19.955 34.36 21.035 34.63 22.49 34.63C23.12 34.63 23.705 34.585 24.23 34.51C24.77 34.42 25.19 34.315 25.505 34.195C25.82 34.075 26.09 33.94 26.315 33.79C26.525 33.655 26.69 33.52 26.78 33.415C26.855 33.295 26.9 33.205 26.9 33.145V33.115H22.415V31.135H30.47V37H27.89C27.89 37 27.875 36.055 27.86 35.365C26.705 36.58 24.875 37.18 22.355 37.18ZM35.3673 26.5V28.66H31.9623V26.5H35.3673ZM35.3673 29.395V36.97H31.9623V29.395H35.3673ZM43.8434 28.36H42.5084C42.2534 28.36 42.0734 28.405 41.9834 28.495C41.9084 28.585 41.8634 28.75 41.8634 28.975V29.395H43.8434V31.48H41.8634V36.97H38.4884V31.48H36.9134V29.395H38.4884V28.495C38.4884 27.16 39.4484 26.5 41.3534 26.5H43.8434V28.36ZM74.8552 31.39H50.0002V34.165C50.0002 34.39 50.0452 34.555 50.1352 34.66C50.2252 34.765 50.3902 34.825 50.6452 34.825H74.8552V36.925H48.7702C47.4952 36.925 46.8652 36.205 46.8652 34.75V31.39H45.3802V29.29H46.8652V27.055H50.0002V29.29H74.8552V31.39ZM79.8106 26.5V28.66H76.4056V26.5H79.8106ZM79.8106 29.395V36.97H76.4056V29.395H79.8106ZM87.1018 37.06C86.2018 37.06 85.4068 36.97 84.7018 36.805C83.9968 36.64 83.4418 36.43 83.0368 36.175C82.6318 35.92 82.2868 35.62 82.0168 35.26C81.7618 34.9 81.5818 34.555 81.4918 34.21C81.4018 33.88 81.3568 33.52 81.3568 33.16V32.875C81.3568 32.515 81.4018 32.17 81.4918 31.825C81.5818 31.495 81.7618 31.165 82.0168 30.805C82.2718 30.46 82.6168 30.175 83.0218 29.92C83.4418 29.665 83.9968 29.47 84.6868 29.305C85.3918 29.155 86.1868 29.065 87.0868 29.065H87.9568C88.9318 29.065 89.8018 29.155 90.5368 29.32C91.2718 29.485 91.8418 29.695 92.2318 29.935C92.6218 30.175 92.9368 30.46 93.1918 30.775C93.4318 31.105 93.5818 31.39 93.6568 31.63C93.7168 31.885 93.7468 32.125 93.7468 32.38V32.41H90.2368C90.0118 31.51 89.0968 31.045 87.5068 31.045H87.4618C86.5468 31.045 85.8868 31.225 85.4668 31.585C85.0468 31.93 84.8518 32.38 84.8518 32.92V33.025C84.8518 33.595 85.0618 34.075 85.4668 34.465C85.8868 34.855 86.5618 35.05 87.4618 35.05H87.5068C89.0818 35.05 89.9968 34.585 90.2368 33.655H93.7468V33.685C93.7468 33.94 93.7168 34.195 93.6568 34.45C93.5968 34.69 93.4468 34.99 93.2218 35.32C92.9818 35.65 92.6668 35.935 92.2768 36.175C91.8868 36.415 91.3168 36.625 90.5668 36.79C89.8168 36.97 88.9468 37.06 87.9418 37.06H87.1018ZM101.977 37.045H100.897C99.9825 37.045 99.1575 36.955 98.4525 36.79C97.7475 36.625 97.1775 36.43 96.7425 36.175C96.3075 35.92 95.9625 35.605 95.6925 35.26C95.4075 34.9 95.2275 34.555 95.1225 34.21C95.0175 33.865 94.9725 33.505 94.9725 33.13V32.875C94.9725 32.5 95.0175 32.155 95.1225 31.81C95.2275 31.465 95.4075 31.135 95.6775 30.79C95.9475 30.43 96.2925 30.145 96.7275 29.89C97.1625 29.635 97.7325 29.44 98.4375 29.29C99.1425 29.125 99.9675 29.05 100.882 29.05H101.977C105.907 29.05 107.872 30.325 107.872 32.875V33.13C107.872 35.74 105.907 37.045 101.977 37.045ZM101.437 35.005C102.502 35.005 103.267 34.81 103.717 34.42C104.182 34.045 104.407 33.58 104.407 33.055V32.98C104.407 32.44 104.182 31.975 103.717 31.615C103.267 31.24 102.502 31.06 101.452 31.06H101.437C100.357 31.06 99.5925 31.24 99.1425 31.6C98.6925 31.96 98.4675 32.425 98.4675 32.98V33.055C98.4675 33.58 98.6925 34.045 99.1575 34.42C99.6075 34.81 100.372 35.005 101.437 35.005ZM109.13 29.365H112.505V30.655C113.57 29.68 114.935 29.2 116.6 29.2H116.72C118.055 29.2 119.06 29.485 119.72 30.055C120.395 30.64 120.725 31.33 120.725 32.155V36.925H117.275V33.19C117.275 32.59 117.095 32.125 116.735 31.795C116.36 31.465 115.805 31.3 115.07 31.3C114.305 31.3 113.69 31.495 113.225 31.87C112.775 32.245 112.535 32.74 112.535 33.355V36.925H109.13V29.365Z" fill="#16181B"/>
<path d="M68.6387 74.293C67.0469 74.293 65.6162 74.0342 64.3467 73.5166C63.0869 72.999 62.1006 72.2861 61.3877 71.3779C60.6748 70.46 60.3184 69.4297 60.3184 68.2871C60.3184 67.418 60.5234 66.6074 60.9336 65.8555C61.3438 65.1035 61.9053 64.4834 62.6182 63.9951C63.3408 63.4971 64.1367 63.1797 65.0059 63.043V62.8965C64.2441 62.75 63.5703 62.457 62.9844 62.0176C62.3984 61.5684 61.9443 61.0166 61.6221 60.3623C61.2998 59.6982 61.1387 58.9805 61.1387 58.209C61.1387 57.125 61.4609 56.1484 62.1055 55.2793C62.75 54.4102 63.6436 53.7314 64.7861 53.2432C65.9287 52.7451 67.2129 52.4961 68.6387 52.4961C70.0645 52.4961 71.3486 52.7451 72.4912 53.2432C73.6338 53.7314 74.5322 54.4102 75.1865 55.2793C75.8408 56.1484 76.168 57.125 76.168 58.209C76.168 58.9707 75.9971 59.6836 75.6553 60.3477C75.3232 61.0117 74.8643 61.5684 74.2783 62.0176C73.6924 62.457 73.0332 62.75 72.3008 62.8965V63.043C73.1602 63.1797 73.9414 63.4971 74.6445 63.9951C75.3574 64.4834 75.9189 65.1035 76.3291 65.8555C76.749 66.6074 76.959 67.418 76.959 68.2871C76.959 69.4297 76.6025 70.46 75.8896 71.3779C75.1768 72.2861 74.1855 72.999 72.916 73.5166C71.6562 74.0342 70.2305 74.293 68.6387 74.293ZM64.918 67.8477C64.918 68.4434 65.0693 68.9756 65.3721 69.4443C65.6846 69.9131 66.124 70.2793 66.6904 70.543C67.2568 70.7969 67.9062 70.9238 68.6387 70.9238C69.3711 70.9238 70.0205 70.7969 70.5869 70.543C71.1533 70.2793 71.5879 69.9131 71.8906 69.4443C72.2031 68.9756 72.3594 68.4434 72.3594 67.8477C72.3594 67.2422 72.1982 66.7002 71.876 66.2217C71.5635 65.7334 71.124 65.3525 70.5576 65.0791C69.9912 64.7959 69.3516 64.6543 68.6387 64.6543C67.9258 64.6543 67.2861 64.7959 66.7197 65.0791C66.1533 65.3525 65.709 65.7334 65.3867 66.2217C65.0742 66.7002 64.918 67.2422 64.918 67.8477ZM65.4453 58.6484C65.4453 59.2051 65.5771 59.7031 65.8408 60.1426C66.1143 60.582 66.4951 60.9287 66.9834 61.1826C67.4717 61.4268 68.0234 61.5488 68.6387 61.5488C69.2539 61.5488 69.8057 61.4268 70.2939 61.1826C70.7822 60.9287 71.1631 60.582 71.4365 60.1426C71.7197 59.7031 71.8613 59.2051 71.8613 58.6484C71.8613 58.1016 71.7197 57.6182 71.4365 57.1982C71.1631 56.7686 70.7822 56.4365 70.2939 56.2021C69.8154 55.958 69.2637 55.8359 68.6387 55.8359C68.0137 55.8359 67.457 55.958 66.9688 56.2021C66.4805 56.4365 66.1045 56.7686 65.8408 57.1982C65.5771 57.6182 65.4453 58.1016 65.4453 58.6484Z" fill="#9E00FF"/>
</svg>
