<svg width="223" height="57" viewBox="0 0 223 57" fill="none" xmlns="http://www.w3.org/2000/svg">
<rect width="223" height="57" rx="28.5" fill="white"/>
<path d="M40.72 34V22.784H51.184C52.816 22.784 53.968 23.008 54.64 23.488C55.328 23.968 55.664 24.592 55.664 25.344V25.552C55.664 25.888 55.584 26.208 55.456 26.48C55.312 26.752 55.136 26.976 54.896 27.136C54.672 27.312 54.464 27.44 54.272 27.52C54.096 27.616 53.904 27.696 53.712 27.744C53.984 27.792 54.24 27.888 54.496 28C54.752 28.112 55.024 28.272 55.328 28.464C55.632 28.672 55.888 28.96 56.064 29.328C56.256 29.68 56.352 30.096 56.352 30.56V30.768C56.352 32.928 54.656 34 51.28 34H40.72ZM44.544 25.152V26.976H50.528C51.424 26.976 51.856 26.672 51.856 26.064V26.032C51.856 25.44 51.424 25.152 50.528 25.152H44.544ZM50.864 29.36H44.544V31.552H50.864C51.424 31.552 51.824 31.44 52.048 31.216C52.256 31.008 52.368 30.752 52.368 30.448V30.4C52.368 29.696 51.872 29.36 50.864 29.36ZM64.4434 25.488H68.2354V27.392C68.2354 27.392 63.3714 27.392 62.9554 27.44C62.5394 27.488 61.8994 27.856 61.5794 28.24C61.2594 28.624 61.0994 29.088 61.0994 29.664V33.92H57.6754V25.664H61.0834V27.12C61.2274 26.912 61.4034 26.688 61.6114 26.48C61.8354 26.272 62.2034 26.048 62.7154 25.824C63.2434 25.6 63.8034 25.488 64.4434 25.488ZM76.5145 34.048H75.3625C74.3865 34.048 73.5065 33.952 72.7545 33.776C72.0025 33.6 71.3945 33.392 70.9305 33.12C70.4665 32.848 70.0985 32.512 69.8105 32.144C69.5065 31.76 69.3145 31.392 69.2025 31.024C69.0905 30.656 69.0425 30.272 69.0425 29.872V29.6C69.0425 29.2 69.0905 28.832 69.2025 28.464C69.3145 28.096 69.5065 27.744 69.7945 27.376C70.0825 26.992 70.4505 26.688 70.9145 26.416C71.3785 26.144 71.9865 25.936 72.7385 25.776C73.4905 25.6 74.3705 25.52 75.3465 25.52H76.5145C80.7065 25.52 82.8025 26.88 82.8025 29.6V29.872C82.8025 32.656 80.7065 34.048 76.5145 34.048ZM75.9385 31.872C77.0745 31.872 77.8905 31.664 78.3705 31.248C78.8665 30.848 79.1065 30.352 79.1065 29.792V29.712C79.1065 29.136 78.8665 28.64 78.3705 28.256C77.8905 27.856 77.0745 27.664 75.9545 27.664H75.9385C74.7865 27.664 73.9705 27.856 73.4905 28.24C73.0105 28.624 72.7705 29.12 72.7705 29.712V29.792C72.7705 30.352 73.0105 30.848 73.5065 31.248C73.9865 31.664 74.8025 31.872 75.9385 31.872ZM111.824 25.84H114.992L111.824 33.984H108.24L106.592 29.584H92.0641L90.4321 33.984H86.9121L83.5361 25.84H87.0561L88.9281 31.04L90.2241 27.392H108.688L110.016 31.04L111.824 25.84ZM121.315 34.192C117.539 34.192 115.667 33.248 115.667 31.328V31.232H119.427C119.427 31.968 120.179 32.336 121.683 32.336H121.715C122.339 32.336 122.835 32.288 123.187 32.208C123.539 32.128 123.763 32.048 123.859 31.952C123.939 31.84 123.987 31.728 123.987 31.568V31.536C123.987 31.312 123.859 31.136 123.619 31.024C123.363 30.912 122.851 30.848 122.051 30.832L120.483 30.8C119.571 30.784 118.787 30.704 118.131 30.544C117.491 30.4 116.995 30.192 116.659 29.952C116.339 29.696 116.099 29.44 115.955 29.168C115.811 28.896 115.747 28.608 115.747 28.288V28.192C115.747 27.92 115.779 27.664 115.843 27.44C115.923 27.232 116.067 26.992 116.307 26.768C116.547 26.544 116.851 26.352 117.251 26.192C117.635 26.048 118.179 25.92 118.867 25.824C119.555 25.728 120.371 25.68 121.299 25.68H121.955C125.635 25.68 127.475 26.512 127.475 28.208V28.32H123.747C123.731 28.208 123.699 28.128 123.651 28.048C123.619 27.984 123.523 27.888 123.395 27.792C123.267 27.696 123.043 27.632 122.739 27.568C122.419 27.52 122.035 27.488 121.587 27.488H121.571C120.739 27.488 120.179 27.536 119.891 27.632C119.619 27.712 119.475 27.872 119.475 28.096V28.112C119.475 28.32 119.603 28.48 119.859 28.576C120.131 28.688 120.611 28.752 121.315 28.768L122.883 28.8C124.211 28.816 125.235 28.928 125.955 29.136C126.691 29.344 127.187 29.616 127.427 29.952C127.667 30.288 127.795 30.752 127.795 31.328V31.424C127.795 31.824 127.715 32.192 127.555 32.496C127.395 32.8 127.123 33.088 126.723 33.36C126.323 33.632 125.731 33.84 124.931 33.984C124.131 34.128 123.155 34.192 121.987 34.192H121.315ZM142.218 31.024C142.218 31.28 142.186 31.52 142.106 31.76C142.026 32.016 141.866 32.272 141.61 32.56C141.338 32.864 141.002 33.104 140.586 33.328C140.17 33.536 139.594 33.728 138.826 33.872C138.074 34.016 137.194 34.08 136.186 34.08H135.258C134.122 34.08 133.146 33.968 132.314 33.744C131.482 33.52 130.842 33.2 130.378 32.8C129.93 32.4 129.594 31.968 129.37 31.504C129.162 31.04 129.066 30.512 129.066 29.952V29.632C129.066 29.072 129.162 28.576 129.354 28.112C129.546 27.648 129.866 27.232 130.314 26.832C130.746 26.432 131.386 26.128 132.202 25.904C133.034 25.68 134.01 25.568 135.162 25.568H136.154C140.234 25.568 142.266 27.008 142.266 29.92V30.464H132.634C132.874 31.52 133.914 32.048 135.754 32.048H135.77C136.218 32.048 136.634 32.016 136.986 31.952C137.338 31.888 137.61 31.824 137.802 31.728C138.01 31.648 138.17 31.552 138.298 31.456C138.41 31.344 138.506 31.264 138.538 31.2C138.586 31.136 138.618 31.072 138.618 31.008H142.218V31.024ZM135.642 27.44H135.626C133.978 27.44 133.002 27.888 132.698 28.8H138.586C138.33 27.888 137.354 27.44 135.642 27.44Z" fill="#16181B"/>
<path d="M169 29C169 34.5139 173.486 39 179 39C184.514 39 189 34.5139 189 29C189 23.4861 184.514 19 179 19C173.486 19 169 23.4861 169 29ZM182.75 29L176.5 35.25L176.5 31.5L179 29L176.5 26.5L176.5 22.75L182.75 29Z" fill="#16181B"/>
</svg>
