<svg width="17" height="18" viewBox="0 0 17 18" fill="none" xmlns="http://www.w3.org/2000/svg">
<path d="M5.93638 16.896V14.144C5.93638 13.4416 6.50668 12.8721 7.21018 12.8721H9.78181C10.1196 12.8721 10.4436 13.0061 10.6825 13.2446C10.9214 13.4832 11.0556 13.8067 11.0556 14.144V16.896C11.0535 17.1881 11.1682 17.4689 11.3742 17.6762C11.5803 17.8834 11.8607 18 12.1532 18H13.9076C14.727 18.0021 15.5136 17.6785 16.0938 17.1007C16.6739 16.5229 17 15.7383 17 14.92V7.08017C17 6.41921 16.7066 5.79225 16.1989 5.3682L10.2304 0.608282C9.19222 -0.226294 7.70468 -0.199348 6.69745 0.672281L0.865221 5.3682C0.333505 5.77975 0.0157047 6.40857 0 7.08017V14.912C0 16.6175 1.3845 18 3.09237 18H4.80679C5.41426 18 5.90794 17.5106 5.91235 16.904L5.93638 16.896Z" fill="white"/>
</svg>
