<svg width="377" height="17" viewBox="0 0 377 17" fill="none" xmlns="http://www.w3.org/2000/svg">
<path d="M0.944 13V1.832H4.752V5.896H12.928V1.832H16.752V13H12.928V8.6H4.752V13H0.944ZM31.6868 10.024C31.6868 10.28 31.6548 10.52 31.5748 10.76C31.4948 11.016 31.3348 11.272 31.0788 11.56C30.8068 11.864 30.4708 12.104 30.0548 12.328C29.6388 12.536 29.0628 12.728 28.2948 12.872C27.5428 13.016 26.6628 13.08 25.6548 13.08H24.7268C23.5908 13.08 22.6148 12.968 21.7828 12.744C20.9508 12.52 20.3108 12.2 19.8468 11.8C19.3988 11.4 19.0628 10.968 18.8388 10.504C18.6308 10.04 18.5348 9.512 18.5348 8.952V8.632C18.5348 8.072 18.6308 7.576 18.8228 7.112C19.0148 6.648 19.3348 6.232 19.7828 5.832C20.2148 5.432 20.8548 5.128 21.6708 4.904C22.5028 4.68 23.4788 4.568 24.6308 4.568H25.6228C29.7028 4.568 31.7348 6.008 31.7348 8.92V9.464H22.1028C22.3428 10.52 23.3828 11.048 25.2228 11.048H25.2388C25.6868 11.048 26.1028 11.016 26.4548 10.952C26.8068 10.888 27.0788 10.824 27.2708 10.728C27.4788 10.648 27.6388 10.552 27.7668 10.456C27.8788 10.344 27.9748 10.264 28.0068 10.2C28.0548 10.136 28.0868 10.072 28.0868 10.008H31.6868V10.024ZM25.1108 6.44H25.0948C23.4468 6.44 22.4708 6.888 22.1668 7.8H28.0548C27.7988 6.888 26.8228 6.44 25.1108 6.44ZM37.0105 1.8V12.968H33.3785V1.8H37.0105ZM42.2918 1.8V12.968H38.6598V1.8H42.2918ZM69.925 4.776C73.685 4.776 75.557 6.104 75.557 8.728V9C75.557 11.688 73.685 13.048 69.925 13.048H49.253C48.373 13.048 47.605 12.952 46.917 12.792C46.245 12.616 45.701 12.408 45.285 12.136C44.885 11.88 44.549 11.56 44.277 11.192C44.021 10.824 43.845 10.472 43.749 10.104C43.653 9.752 43.605 9.384 43.605 9V8.728C43.605 8.344 43.653 7.976 43.749 7.624C43.845 7.288 44.021 6.92 44.277 6.568C44.533 6.216 44.869 5.896 45.285 5.64C45.685 5.384 46.229 5.176 46.901 5.016C47.589 4.856 48.357 4.776 49.237 4.776H69.925ZM72.613 8.904V8.84C72.613 8.344 72.389 7.912 71.925 7.576C71.509 7.256 70.821 7.096 69.893 7.064C69.829 7.064 49.589 7.064 49.525 7.064H49.509C48.453 7.064 47.685 7.24 47.237 7.576C46.789 7.912 46.565 8.328 46.565 8.84V8.904C46.565 9.4 46.789 9.832 47.253 10.184C47.701 10.552 48.453 10.728 49.509 10.728C49.589 10.728 69.845 10.728 69.925 10.728C70.853 10.696 71.509 10.52 71.925 10.184C72.389 9.832 72.613 9.4 72.613 8.904ZM56.805 10.424L59.013 7.384H62.341L60.133 10.424H56.805ZM79.8221 9.816V8.872C79.8221 8.392 79.9661 8.024 80.2541 7.768C80.5421 7.496 81.1341 7.272 82.0301 7.064L83.1821 6.792C83.7101 6.68 84.0461 6.552 84.2221 6.424C84.3821 6.296 84.4621 6.152 84.4621 5.992C84.4621 5.864 84.4301 5.752 84.3661 5.672C84.3021 5.592 84.0941 5.512 83.7261 5.448C83.3741 5.368 82.8461 5.336 82.1581 5.336C81.6941 5.336 81.2781 5.368 80.9421 5.432C80.6061 5.496 80.3501 5.56 80.1901 5.64C80.0301 5.704 79.9021 5.816 79.8221 5.96C79.7261 6.088 79.6781 6.184 79.6621 6.248C79.6621 6.296 79.6461 6.392 79.6301 6.52H76.4941V6.36C76.4941 6.152 76.4941 5.976 76.5101 5.832C76.5261 5.672 76.5581 5.496 76.6381 5.272C76.7181 5.032 76.8141 4.84 76.9421 4.68C77.0861 4.52 77.2781 4.36 77.5341 4.184C77.8061 4.008 78.1101 3.864 78.4781 3.736C78.8301 3.624 79.2941 3.544 79.8701 3.464C80.4301 3.4 81.0701 3.352 81.7741 3.352H82.5421C83.3741 3.352 84.1101 3.416 84.7341 3.512C85.3741 3.624 85.8541 3.752 86.2221 3.912C86.5901 4.088 86.8781 4.28 87.1021 4.52C87.3261 4.76 87.4701 5 87.5341 5.224C87.6141 5.448 87.6461 5.704 87.6461 5.976V6.056C87.6461 6.68 87.4381 7.208 87.0221 7.624C86.6221 8.04 85.9341 8.36 85.0061 8.568L83.8701 8.856C83.4541 8.936 83.2141 9.048 83.1021 9.16C83.0061 9.288 82.9581 9.48 82.9581 9.736V9.816H79.8221ZM83.0861 10.648V12.856H79.7741V10.648H83.0861ZM97.71 1.816H101.518V10.232H110.014V13.016H97.71V1.816ZM124.187 10.024C124.187 10.28 124.155 10.52 124.075 10.76C123.995 11.016 123.835 11.272 123.579 11.56C123.307 11.864 122.971 12.104 122.555 12.328C122.139 12.536 121.563 12.728 120.795 12.872C120.043 13.016 119.163 13.08 118.155 13.08H117.227C116.091 13.08 115.115 12.968 114.283 12.744C113.451 12.52 112.811 12.2 112.347 11.8C111.899 11.4 111.563 10.968 111.339 10.504C111.131 10.04 111.035 9.512 111.035 8.952V8.632C111.035 8.072 111.131 7.576 111.323 7.112C111.515 6.648 111.835 6.232 112.283 5.832C112.715 5.432 113.355 5.128 114.171 4.904C115.003 4.68 115.979 4.568 117.131 4.568H118.123C122.203 4.568 124.235 6.008 124.235 8.92V9.464H114.603C114.843 10.52 115.883 11.048 117.723 11.048H117.739C118.187 11.048 118.603 11.016 118.955 10.952C119.307 10.888 119.579 10.824 119.771 10.728C119.979 10.648 120.139 10.552 120.267 10.456C120.379 10.344 120.475 10.264 120.507 10.2C120.555 10.136 120.587 10.072 120.587 10.008H124.187V10.024ZM117.611 6.44H117.595C115.947 6.44 114.971 6.888 114.667 7.8H120.555C120.299 6.888 119.323 6.44 117.611 6.44ZM129.766 12.92C128.311 12.92 127.591 12.168 127.591 10.632V7.08H125.879V4.856H127.591V2.504H131.191V4.856H132.919V7.08H131.191V10.008C131.191 10.248 131.239 10.424 131.335 10.536C131.431 10.648 131.623 10.712 131.927 10.712H132.919V12.92H129.766ZM139.126 2.248H136.182L134.71 0.311999H137.894L139.126 2.248ZM146.205 13.192C142.429 13.192 140.557 12.248 140.557 10.328V10.232H144.317C144.317 10.968 145.069 11.336 146.573 11.336H146.605C147.229 11.336 147.725 11.288 148.077 11.208C148.429 11.128 148.653 11.048 148.749 10.952C148.829 10.84 148.877 10.728 148.877 10.568V10.536C148.877 10.312 148.749 10.136 148.509 10.024C148.253 9.912 147.741 9.848 146.941 9.832L145.373 9.8C144.461 9.784 143.677 9.704 143.021 9.544C142.381 9.4 141.885 9.192 141.549 8.952C141.229 8.696 140.989 8.44 140.845 8.168C140.701 7.896 140.637 7.608 140.637 7.288V7.192C140.637 6.92 140.669 6.664 140.733 6.44C140.813 6.232 140.957 5.992 141.197 5.768C141.437 5.544 141.741 5.352 142.141 5.192C142.525 5.048 143.069 4.92 143.757 4.824C144.445 4.728 145.261 4.68 146.189 4.68H146.845C150.525 4.68 152.365 5.512 152.365 7.208V7.32H148.637C148.621 7.208 148.589 7.128 148.541 7.048C148.509 6.984 148.413 6.888 148.285 6.792C148.157 6.696 147.933 6.632 147.629 6.568C147.309 6.52 146.925 6.488 146.477 6.488H146.461C145.629 6.488 145.069 6.536 144.781 6.632C144.509 6.712 144.365 6.872 144.365 7.096V7.112C144.365 7.32 144.493 7.48 144.749 7.576C145.021 7.688 145.501 7.752 146.205 7.768L147.773 7.8C149.101 7.816 150.125 7.928 150.845 8.136C151.581 8.344 152.077 8.616 152.317 8.952C152.557 9.288 152.685 9.752 152.685 10.328V10.424C152.685 10.824 152.605 11.192 152.445 11.496C152.285 11.8 152.013 12.088 151.613 12.36C151.213 12.632 150.621 12.84 149.821 12.984C149.021 13.128 148.045 13.192 146.877 13.192H146.205ZM172.231 4.952H175.815V11.896C175.815 12.248 175.767 12.616 175.703 12.968C175.623 13.336 175.463 13.736 175.191 14.184C174.935 14.632 174.599 15.016 174.183 15.352C173.767 15.688 173.191 15.96 172.423 16.184C171.671 16.408 170.791 16.52 169.783 16.52H145.559V14.216H169.623C171.383 14.104 172.263 13.304 172.263 11.784C171.287 12.648 169.895 13.064 168.087 13.064H167.895C166.007 13.064 164.599 12.696 163.671 11.928C162.759 11.176 162.295 10.2 162.295 9V8.696C162.295 7.56 162.711 6.616 163.543 5.864C164.375 5.112 165.671 4.744 167.447 4.744H167.783C169.783 4.744 171.271 5.192 172.231 6.088V4.952ZM172.183 8.952V8.872C172.183 8.328 171.895 7.88 171.351 7.512C170.791 7.144 169.991 6.952 168.935 6.952H168.839C167.799 6.952 167.047 7.128 166.583 7.496C166.135 7.848 165.911 8.296 165.911 8.856V8.92C165.911 9.48 166.151 9.944 166.631 10.328C167.095 10.712 167.831 10.904 168.839 10.904H168.935C169.991 10.904 170.791 10.712 171.351 10.328C171.895 9.944 172.183 9.48 172.183 8.952ZM203.441 4.776C207.201 4.776 209.073 6.104 209.073 8.728V9C209.073 11.688 207.201 13.048 203.441 13.048H182.769C181.889 13.048 181.121 12.952 180.433 12.792C179.761 12.616 179.217 12.408 178.801 12.136C178.401 11.88 178.065 11.56 177.793 11.192C177.537 10.824 177.361 10.472 177.265 10.104C177.169 9.752 177.121 9.384 177.121 9V8.728C177.121 8.344 177.169 7.976 177.265 7.624C177.361 7.288 177.537 6.92 177.793 6.568C178.049 6.216 178.385 5.896 178.801 5.64C179.201 5.384 179.745 5.176 180.417 5.016C181.105 4.856 181.873 4.776 182.753 4.776H203.441ZM206.129 8.904V8.84C206.129 8.344 205.905 7.912 205.441 7.576C205.025 7.256 204.337 7.096 203.409 7.064C203.345 7.064 183.105 7.064 183.041 7.064H183.025C181.969 7.064 181.201 7.24 180.753 7.576C180.305 7.912 180.081 8.328 180.081 8.84V8.904C180.081 9.4 180.305 9.832 180.769 10.184C181.217 10.552 181.969 10.728 183.025 10.728C183.105 10.728 203.361 10.728 203.441 10.728C204.369 10.696 205.025 10.52 205.441 10.184C205.905 9.832 206.129 9.4 206.129 8.904ZM190.321 10.424L192.529 7.384H195.857L193.649 10.424H190.321ZM218.988 1.704H222.62V5.912C223.836 5.032 225.308 4.6 227.02 4.6H227.324C229.196 4.6 230.556 4.968 231.42 5.72C232.268 6.456 232.7 7.432 232.7 8.648V8.936C232.7 9.496 232.604 10.024 232.38 10.504C232.172 10.984 231.852 11.416 231.42 11.8C231.004 12.2 230.428 12.504 229.708 12.728C228.988 12.952 228.156 13.064 227.212 13.064H226.924C225.836 13.064 224.924 12.904 224.172 12.6C223.42 12.296 222.876 12.008 222.572 11.72C222.492 11.96 222.412 12.328 222.348 12.872H218.988V1.704ZM222.62 8.776V8.824C222.62 9.384 222.908 9.864 223.468 10.296C224.012 10.712 224.796 10.936 225.804 10.936H225.9C226.972 10.936 227.756 10.728 228.252 10.312C228.732 9.896 228.972 9.4 228.972 8.824V8.776C228.972 8.168 228.732 7.672 228.252 7.272C227.772 6.888 226.988 6.68 225.9 6.68H225.804C224.78 6.68 223.996 6.888 223.452 7.304C222.892 7.704 222.62 8.2 222.62 8.776ZM245.611 10.84H246.059V13.096H243.259C242.491 13.096 242.059 12.712 241.931 11.96C241.675 12.264 241.243 12.568 240.619 12.84C239.995 13.112 239.147 13.24 238.075 13.24H237.883C236.571 13.24 235.595 12.984 234.955 12.472C234.315 11.96 234.011 11.32 234.011 10.536V10.424C234.011 9.672 234.267 9.096 234.811 8.696C235.355 8.312 236.251 8.056 237.499 7.944L241.323 7.592C241.659 7.544 241.835 7.4 241.835 7.16C241.835 7.016 241.803 6.92 241.739 6.824C241.675 6.744 241.467 6.664 241.131 6.6C240.795 6.52 240.299 6.472 239.675 6.472L234.011 6.488V4.568H240.027C240.955 4.568 241.755 4.616 242.411 4.728C243.083 4.84 243.579 4.984 243.931 5.144C244.283 5.32 244.555 5.528 244.747 5.784C244.955 6.056 245.067 6.28 245.115 6.488C245.147 6.696 245.179 6.952 245.179 7.24V10.424C245.179 10.696 245.323 10.84 245.611 10.84ZM241.835 9.4V9.144L238.539 9.656C238.075 9.72 237.755 9.816 237.563 9.928C237.387 10.04 237.291 10.2 237.291 10.424V10.44C237.291 10.696 237.403 10.92 237.643 11.112C237.883 11.288 238.267 11.384 238.811 11.384C239.691 11.384 240.427 11.176 240.987 10.776C241.563 10.376 241.835 9.928 241.835 9.4ZM278.647 7.016H252.135V9.976C252.135 10.216 252.183 10.392 252.279 10.504C252.375 10.616 252.551 10.68 252.823 10.68H278.647V12.92H250.823C249.463 12.92 248.791 12.152 248.791 10.6V7.016H247.207V4.776H248.791V2.392H252.135V4.776H278.647V7.016ZM283.932 1.8V12.968H280.3V1.8H283.932ZM298.734 10.024C298.734 10.28 298.702 10.52 298.622 10.76C298.542 11.016 298.382 11.272 298.126 11.56C297.854 11.864 297.518 12.104 297.102 12.328C296.686 12.536 296.11 12.728 295.342 12.872C294.59 13.016 293.71 13.08 292.702 13.08H291.774C290.638 13.08 289.662 12.968 288.83 12.744C287.998 12.52 287.358 12.2 286.894 11.8C286.446 11.4 286.11 10.968 285.886 10.504C285.678 10.04 285.582 9.512 285.582 8.952V8.632C285.582 8.072 285.678 7.576 285.87 7.112C286.062 6.648 286.382 6.232 286.83 5.832C287.262 5.432 287.902 5.128 288.718 4.904C289.55 4.68 290.526 4.568 291.678 4.568H292.67C296.75 4.568 298.782 6.008 298.782 8.92V9.464H289.15C289.39 10.52 290.43 11.048 292.27 11.048H292.286C292.734 11.048 293.15 11.016 293.502 10.952C293.854 10.888 294.126 10.824 294.318 10.728C294.526 10.648 294.686 10.552 294.814 10.456C294.926 10.344 295.022 10.264 295.054 10.2C295.102 10.136 295.134 10.072 295.134 10.008H298.734V10.024ZM292.158 6.44H292.142C290.494 6.44 289.518 6.888 289.214 7.8H295.102C294.846 6.888 293.87 6.44 292.158 6.44ZM300.297 3.224H304.025L303.081 9.768H301.241L300.297 3.224ZM303.833 10.408V12.616H300.489V10.408H303.833ZM320.993 13.208C319.777 13.208 318.705 13.112 317.809 12.92C316.897 12.728 316.193 12.504 315.697 12.232C315.217 11.96 314.817 11.624 314.529 11.24C314.241 10.856 314.049 10.504 313.969 10.2C313.889 9.896 313.857 9.56 313.857 9.208V9.048H317.841C317.921 10.232 318.785 10.824 321.121 10.824H322.001C322.769 10.824 323.089 10.776 323.601 10.712C324.097 10.648 324.465 10.568 324.689 10.44C324.929 10.312 325.073 10.2 325.153 10.072C325.233 9.944 325.265 9.8 325.265 9.624C325.265 9.384 325.201 9.192 325.073 9.048C324.945 8.92 324.625 8.792 324.145 8.68C323.665 8.584 322.977 8.52 322.065 8.504L320.865 8.472L319.969 8.456C316.001 8.36 314.017 7.256 314.017 5.176V5.032C314.017 4.68 314.065 4.344 314.161 4.04C314.257 3.736 314.449 3.432 314.753 3.112C315.041 2.808 315.424 2.552 315.905 2.344C316.385 2.136 317.025 1.96 317.841 1.832C318.641 1.688 319.585 1.624 320.657 1.624H321.793C322.897 1.624 323.889 1.688 324.737 1.832C325.601 1.976 326.273 2.152 326.785 2.376C327.297 2.6 327.713 2.872 328.033 3.192C328.353 3.512 328.577 3.832 328.689 4.136C328.817 4.456 328.881 4.792 328.881 5.16V5.304H324.913C324.881 5.192 324.849 5.08 324.817 5C324.785 4.92 324.689 4.808 324.545 4.664C324.401 4.52 324.225 4.408 323.985 4.312C323.761 4.232 323.409 4.152 322.961 4.072C322.513 4.008 322.161 3.976 321.553 3.976H320.993C320.065 3.976 319.489 4.024 318.993 4.12C318.513 4.232 318.209 4.344 318.113 4.456C318.001 4.568 317.953 4.728 317.953 4.936C317.953 5.128 318.001 5.272 318.129 5.4C318.241 5.512 318.513 5.624 318.945 5.736C319.377 5.832 319.985 5.88 320.769 5.896L321.665 5.912L322.817 5.928C325.105 5.96 326.737 6.248 327.745 6.776C328.769 7.304 329.265 8.12 329.265 9.256V9.464C329.265 9.88 329.217 10.248 329.121 10.568C329.025 10.888 328.817 11.224 328.513 11.576C328.209 11.912 327.809 12.2 327.297 12.424C326.785 12.664 326.097 12.84 325.217 12.984C324.337 13.144 323.297 13.208 322.113 13.208H320.993ZM334.516 12.92C333.061 12.92 332.341 12.168 332.341 10.632V7.08H330.629V4.856H332.341V2.504H335.941V4.856H337.669V7.08H335.941V10.008C335.941 10.248 335.989 10.424 336.085 10.536C336.181 10.648 336.373 10.712 336.677 10.712H337.669V12.92H334.516ZM350.58 10.84H351.028V13.096H348.228C347.46 13.096 347.028 12.712 346.9 11.96C346.644 12.264 346.212 12.568 345.588 12.84C344.964 13.112 344.116 13.24 343.044 13.24H342.852C341.54 13.24 340.564 12.984 339.924 12.472C339.284 11.96 338.98 11.32 338.98 10.536V10.424C338.98 9.672 339.236 9.096 339.78 8.696C340.324 8.312 341.22 8.056 342.468 7.944L346.292 7.592C346.628 7.544 346.804 7.4 346.804 7.16C346.804 7.016 346.772 6.92 346.708 6.824C346.644 6.744 346.436 6.664 346.1 6.6C345.764 6.52 345.268 6.472 344.644 6.472L338.98 6.488V4.568H344.996C345.924 4.568 346.724 4.616 347.38 4.728C348.052 4.84 348.548 4.984 348.9 5.144C349.252 5.32 349.524 5.528 349.716 5.784C349.924 6.056 350.036 6.28 350.084 6.488C350.116 6.696 350.148 6.952 350.148 7.24V10.424C350.148 10.696 350.292 10.84 350.58 10.84ZM346.804 9.4V9.144L343.508 9.656C343.044 9.72 342.724 9.816 342.532 9.928C342.356 10.04 342.26 10.2 342.26 10.424V10.44C342.26 10.696 342.372 10.92 342.612 11.112C342.852 11.288 343.236 11.384 343.78 11.384C344.66 11.384 345.396 11.176 345.956 10.776C346.532 10.376 346.804 9.928 346.804 9.4ZM358.943 4.488H362.735V6.392C362.735 6.392 357.871 6.392 357.455 6.44C357.039 6.488 356.399 6.856 356.079 7.24C355.759 7.624 355.599 8.088 355.599 8.664V12.92H352.175V4.664H355.583V6.12C355.727 5.912 355.903 5.688 356.111 5.48C356.335 5.272 356.703 5.048 357.215 4.824C357.743 4.6 358.303 4.488 358.943 4.488ZM367.766 12.92C366.311 12.92 365.591 12.168 365.591 10.632V7.08H363.879V4.856H365.591V2.504H369.191V4.856H370.919V7.08H369.191V10.008C369.191 10.248 369.239 10.424 369.335 10.536C369.431 10.648 369.623 10.712 369.927 10.712H370.919V12.92H367.766ZM372.438 3.224H376.166L375.222 9.768H373.382L372.438 3.224ZM375.974 10.408V12.616H372.63V10.408H375.974Z" fill="#05FF00"/>
</svg>
