<svg width="129" height="32" viewBox="0 0 129 32" fill="none" xmlns="http://www.w3.org/2000/svg">
<path d="M8.47181 12.0642C7.15123 12.0642 5.97802 11.934 4.95313 11.6728C3.92825 11.4115 3.11102 11.0804 2.5024 10.6776C1.89283 10.2756 1.39522 9.80579 1.00766 9.26799C0.620099 8.73019 0.355983 8.21344 0.213398 7.71678C0.0708137 7.22109 0 6.71678 0 6.20481V5.76654C0 5.25457 0.0593305 4.76175 0.178948 4.28615C0.298566 3.81055 0.549285 3.30432 0.930148 2.76652C1.31197 2.22872 1.80384 1.76365 2.40767 1.37226C3.0115 0.980866 3.84499 0.654549 4.91007 0.393303C5.97515 0.131101 7.20769 0 8.60865 0H9.34263C10.6977 0 11.8938 0.104307 12.9302 0.31292C13.9666 0.521534 14.7781 0.779908 15.3647 1.08804C15.9513 1.39618 16.4326 1.76173 16.8077 2.1847C17.1838 2.60767 17.4345 2.99427 17.5589 3.34451C17.6833 3.69476 17.7522 4.05265 17.7637 4.4182V4.43351H13.5273C13.1063 3.32633 11.5972 2.77322 9.001 2.77322C5.77802 2.77322 4.16748 3.82299 4.16748 5.92252V6.09477C4.16748 6.95123 4.56366 7.68808 5.35505 8.30339C6.14644 8.91966 7.35027 9.2278 8.96751 9.2278C9.67373 9.2278 10.3225 9.18091 10.9149 9.08713C11.5072 8.99335 11.98 8.87851 12.3331 8.74263C12.6862 8.60674 12.9848 8.45842 13.2297 8.29573C13.4747 8.13401 13.645 7.99047 13.7427 7.86511C13.8393 7.73975 13.8881 7.64023 13.8881 7.5675V7.53592H8.90052V5.3273H17.8508V11.8603H14.9857C14.9857 11.8603 14.9656 10.8154 14.9474 10.0431C13.6718 11.3905 11.6335 12.0642 8.83258 12.0642H8.47372H8.47181Z" fill="#05FF00"/>
<path d="M23.3058 2.59023H19.5V0.179688H23.3058V2.59023ZM23.3058 11.8276H19.5V3.40458H23.3058V11.8276Z" fill="#05FF00"/>
<path d="M30.5007 3.00647V3.4725H59.2319V5.77107H30.4997V11.8266H26.759V5.77107H25.0078V3.4725H26.759V2.47823C26.759 1.00837 27.8193 0.273438 29.938 0.273438H59.231V2.32321H31.2136C30.9303 2.32321 30.7399 2.37488 30.6442 2.47823C30.5476 2.58158 30.4997 2.75766 30.4997 3.00647H30.5007Z" fill="#05FF00"/>
<path d="M65.0075 11.7876C63.4936 11.7876 62.7377 10.9896 62.7377 9.39242V5.68235H60.9453V3.36559H62.7377V0.90625H66.4927V3.36464H68.3023V5.68139H66.4927V8.73404C66.4927 8.98476 66.5444 9.16945 66.6468 9.29002C66.7492 9.40964 66.954 9.46993 67.2611 9.46993H68.3023V11.7867H65.0085L65.0075 11.7876Z" fill="#05FF00"/>
<path d="M78.7593 3.75H82.4885L77.7938 13.2237C77.3497 14.1041 76.8837 14.7424 76.3957 15.1386C75.9076 15.5347 75.2751 15.7328 74.498 15.7328H49.5391V13.0917H73.3488C73.6368 13.0917 73.7813 12.9989 73.7813 12.8113C73.7813 12.7127 73.6435 12.3988 73.365 11.8706L69.0865 3.75H73.0818L75.9622 9.75769L78.7593 3.75Z" fill="#05FF00"/>
<path d="M56.8131 26.3514V26.6392C56.8131 29.5741 54.5008 31.0416 49.8752 31.0416H0.34375V15.7344H49.74C51.9629 15.7344 53.5395 16.0606 54.4711 16.7119C55.4014 17.3631 55.8678 18.2029 55.8678 19.2325V19.5202C55.8678 19.9867 55.7736 20.4084 55.5862 20.7855C55.3989 21.1626 55.1471 21.464 54.832 21.691C54.517 21.9168 54.2317 22.0917 53.9761 22.2158C53.7206 22.3398 53.4651 22.4353 53.2108 22.5035C53.5717 22.5854 53.924 22.702 54.2701 22.8534C54.6162 23.0047 54.9983 23.2205 55.4188 23.5009C55.8393 23.7825 56.1767 24.1695 56.4322 24.6632C56.6878 25.1569 56.8155 25.7188 56.8155 26.3502L56.8131 26.3514ZM5.59336 21.4541H48.8394C50.0563 21.4541 50.6641 21.0423 50.6641 20.2199V20.1789C50.6641 19.3702 50.0563 18.9645 48.8394 18.9645H5.59336V21.4541ZM51.3625 26.1244C51.3625 25.178 50.6716 24.7054 49.2897 24.7054H5.59336V27.7097H49.2897C50.0699 27.7097 50.6108 27.5584 50.9122 27.257C51.2124 26.9555 51.3625 26.6057 51.3625 26.2076V26.1257V26.1244Z" fill="#9E00FF"/>
<path d="M81.233 31.0163H76.1583L74.743 28.2786H63.951L62.5356 31.0163H57.4609L65.5078 16.0391H73.1862L81.233 31.0163ZM65.6901 24.8972H73.0051L70.1545 19.397H68.5407L65.6901 24.8972Z" fill="#9E00FF"/>
<path d="M88.2706 15.9062L98.812 25.433V15.9062H103.916V31.051H98.812L87.6045 21.0157V31.051H82.5V15.9062H88.2706Z" fill="#9E00FF"/>
<path d="M116.841 31.2922C115.129 31.2922 113.609 31.1235 112.28 30.7849C110.951 30.4462 109.892 30.017 109.103 29.4948C108.313 28.9738 107.668 28.3647 107.166 27.6676C106.663 26.9705 106.321 26.3006 106.136 25.6568C105.951 25.0143 105.859 24.3605 105.859 23.6969V23.1288C105.859 22.4651 105.936 21.8263 106.091 21.2098C106.246 20.5933 106.571 19.9371 107.065 19.2399C107.56 18.5428 108.198 17.9399 108.98 17.4326C109.763 16.9252 110.844 16.5022 112.224 16.1636C113.605 15.825 115.202 15.6562 117.017 15.6562H117.969C119.725 15.6562 121.276 15.7915 122.619 16.0619C123.963 16.3323 125.015 16.6672 125.775 17.0666C126.535 17.4661 127.159 17.9399 127.646 18.4882C128.133 19.0365 128.458 19.5376 128.619 19.9916C128.781 20.4457 128.87 20.9096 128.885 21.3834V21.4033H123.393C122.847 19.9681 120.891 19.2511 117.526 19.2511C113.348 19.2511 111.26 20.6119 111.26 23.3334V23.5567C111.26 24.6669 111.774 25.6221 112.8 26.4197C113.826 27.2185 115.386 27.618 117.482 27.618C118.398 27.618 119.239 27.5572 120.007 27.4356C120.775 27.3141 121.387 27.1652 121.845 26.9891C122.303 26.8129 122.69 26.6206 123.007 26.4098C123.325 26.2001 123.546 26.0141 123.672 25.8516C123.798 25.6891 123.861 25.5601 123.861 25.4658V25.4248H117.396V22.5619H128.998V31.0305H125.284C125.284 31.0305 125.258 29.6759 125.234 28.6748C123.581 30.4214 120.938 31.2947 117.308 31.2947H116.842L116.841 31.2922Z" fill="#9E00FF"/>
</svg>
