<svg width="222" height="94" viewBox="0 0 222 94" fill="none" xmlns="http://www.w3.org/2000/svg">
<path d="M222 12.7961L208.5 6.38962e-05L15 0L0 12.7961V81.1976L15 94.0001H208.5L222 81.1976V12.7961Z" fill="#9E00FF"/>
<path d="M101.092 74.9108C99.1706 74.9108 98.2204 73.9184 98.2204 71.8912V67.2034H95.9609V64.2682H98.2204V61.1641H102.972V64.2682H105.252V67.2034H102.972V71.0677C102.972 71.3844 103.035 71.6167 103.162 71.7645C103.288 71.9123 103.542 71.9968 103.943 71.9968H105.252V74.9108H101.092Z" fill="white"/>
<path d="M93.8744 71.9111H94.4446V74.8251H90.8125C89.8412 74.8251 89.271 74.3395 89.1021 73.347C88.7642 73.7693 88.1941 74.1494 87.3917 74.4873C86.5893 74.8462 59.5814 75.0152 58.1877 75.0152H57.9343C56.245 75.0152 54.978 74.6984 54.1544 74.0227C53.3309 73.3681 52.9297 72.5234 52.9297 71.5099V71.362C52.9297 70.3907 53.2676 69.6305 53.9644 69.1237C54.6824 68.6169 55.8438 68.3002 57.4486 68.1523L88.2997 67.6878C88.7642 67.6456 88.9965 67.4555 88.9965 67.1388C88.9965 66.9487 88.9332 66.822 88.8487 66.7164C88.7642 66.6108 88.5531 66.4419 88.0674 66.3997C87.2227 66.3152 61.0806 66.2519 60.2571 66.2519L52.9297 66.273V63.7812H60.7216C61.9253 63.7812 88.8698 63.8446 89.7356 63.9924C90.5803 64.1402 91.2349 64.3092 91.6994 64.5414C92.1429 64.7526 92.5018 65.0271 92.7552 65.365C93.0086 65.7028 93.1776 65.9985 93.2198 66.273C93.2832 66.5475 93.3043 66.8642 93.3043 67.2443V71.362C93.3043 71.721 93.4943 71.9111 93.8744 71.9111ZM88.9965 70.0528V69.715L58.8001 70.3696C58.1877 70.454 57.7865 70.5807 57.5331 70.7285C57.3008 70.8552 57.1741 71.0664 57.1741 71.362V71.3832C57.1741 71.721 57.3219 72.0167 57.6386 72.2489C57.9343 72.4812 58.4411 72.6079 59.1379 72.6079C60.2993 72.6079 87.1383 72.3545 87.8774 71.8266C88.6164 71.2987 88.9965 70.7074 88.9965 70.0528Z" fill="white"/>
<path d="M31 75.0135V60.2109H44.8101C46.964 60.2109 48.4844 60.5066 49.3713 61.1401C50.2793 61.7735 50.7227 62.5971 50.7227 63.5896V63.8641C50.7227 64.3075 50.6171 64.7298 50.4482 65.0888C50.2582 65.4478 50.0259 65.7434 49.7091 65.9546C49.4135 66.1869 49.139 66.3558 48.8856 66.4614C48.6533 66.5881 48.3999 66.6937 48.1465 66.757C48.5055 66.8204 48.8434 66.9471 49.1812 67.0949C49.5191 67.2427 49.8781 67.4539 50.2793 67.7073C50.6805 67.9818 51.0184 68.3619 51.2506 68.8475C51.504 69.3121 51.6307 69.8611 51.6307 70.4735V70.748C51.6307 73.5987 49.3924 75.0135 44.9368 75.0135H31ZM36.0468 63.3362V65.7434H43.9444C45.1269 65.7434 45.697 65.3422 45.697 64.5398V64.4976C45.697 63.7163 45.1269 63.3362 43.9444 63.3362H36.0468ZM44.3878 68.8898H36.0468V71.7827H44.3878C45.1269 71.7827 45.6548 71.6349 45.9504 71.3393C46.2249 71.0648 46.3727 70.7269 46.3727 70.3257V70.2624C46.3727 69.3332 45.7181 68.8898 44.3878 68.8898Z" fill="white"/>
<path d="M70.1827 43.5078H74.9128L68.9579 55.5864C68.3878 56.7056 67.7965 57.5291 67.1842 58.0359C66.5718 58.5427 65.7483 58.775 64.7769 58.775H57.9141V55.4175H63.3199C63.6788 55.4175 63.8689 55.2908 63.8689 55.0585C63.8689 54.9318 63.6788 54.5306 63.341 53.8549L57.9141 43.5078H62.982L66.6351 51.1731L70.1827 43.5078Z" fill="white"/>
<path d="M31.3203 53.9221V39.1406H38.4788L44.0324 48.3474L49.6282 39.1406H56.5333V53.9221H51.5498V43.6807L45.2149 53.9221H42.512L36.156 43.6807V53.9221H31.3203Z" fill="white"/>
<path d="M109.772 28.8569C109.772 29.1948 109.73 29.5116 109.624 29.8283C109.518 30.1662 109.307 30.504 108.969 30.8841C108.61 31.2853 108.167 31.6021 107.618 31.8977C107.069 32.1722 106.309 32.4256 105.295 32.6157C104.303 32.8057 103.141 32.8902 101.811 32.8902H100.586C99.0868 32.8902 97.7987 32.7424 96.7007 32.4467C95.6026 32.1511 94.758 31.7288 94.1456 31.2009C93.5543 30.673 93.1109 30.1028 92.8153 29.4904C92.5408 28.8781 92.4141 28.1812 92.4141 27.4421V27.0198C92.4141 26.2807 92.5408 25.6261 92.7942 25.0138C93.0476 24.4014 93.4699 23.8524 94.0611 23.3244C94.6313 22.7965 95.4759 22.3953 96.5529 22.0997C97.6509 21.8041 98.939 21.6562 100.459 21.6562H101.769C107.153 21.6562 109.835 23.5567 109.835 27.3999V28.1179H97.123C97.4398 29.5116 98.8123 30.2084 101.241 30.2084H101.262C101.853 30.2084 102.402 30.1662 102.867 30.0817C103.331 29.9972 103.69 29.9128 103.944 29.7861C104.218 29.6805 104.429 29.5538 104.598 29.4271C104.746 29.2793 104.873 29.1737 104.915 29.0892C104.978 29.0048 105.021 28.9203 105.021 28.8358H109.772V28.8569ZM101.093 24.1269H101.072C98.8968 24.1269 97.6087 24.7181 97.2075 25.9218H104.978C104.64 24.7181 103.352 24.1269 101.093 24.1269Z" fill="white"/>
<path d="M75.875 32.7393V18H80.6684V26.341L85.3774 22.0755H90.7198L85.2296 26.89L91.3744 32.7393H85.7364L80.6684 27.8402V32.7393H75.875Z" fill="white"/>
<path d="M73.7703 29.9339H74.3616V32.9113H70.6662C69.6526 32.9113 69.0825 32.4045 68.9136 31.412C68.5757 31.8132 68.0056 32.2145 67.182 32.5734C66.3585 32.9324 65.2393 33.1013 63.8245 33.1013H63.5711C61.8396 33.1013 60.5515 32.7635 59.7068 32.0878C58.8621 31.412 58.4609 30.5674 58.4609 29.5327V29.3849C58.4609 28.3924 58.7988 27.6322 59.5168 27.1043C60.2347 26.5975 61.4172 26.2596 63.0643 26.1118L68.1111 25.6473C68.5546 25.5839 68.7869 25.3939 68.7869 25.0771C68.7869 24.8871 68.7446 24.7604 68.6602 24.6337C68.5757 24.5281 68.3012 24.4225 67.8577 24.338C67.4143 24.2325 66.7597 24.1691 65.9361 24.1691L58.4609 24.1902V21.6562H66.4007C67.6255 21.6562 68.6813 21.7196 69.5471 21.8674C70.4339 22.0152 71.0886 22.2053 71.5531 22.4164C72.0177 22.6487 72.3767 22.9232 72.6301 23.2611C72.9046 23.6201 73.0524 23.9157 73.1157 24.1902C73.158 24.4647 73.2002 24.8026 73.2002 25.1827V29.3849C73.2002 29.7438 73.3902 29.9339 73.7703 29.9339ZM68.7869 28.0334V27.6955L64.4369 28.3713C63.8245 28.4557 63.4022 28.5824 63.1488 28.7302C62.9165 28.8781 62.7898 29.0892 62.7898 29.3849V29.406C62.7898 29.7438 62.9376 30.0395 63.2544 30.2929C63.5711 30.5251 64.0779 30.6518 64.7959 30.6518C65.9573 30.6518 66.9286 30.3773 67.6677 29.8494C68.4279 29.3215 68.7869 28.7302 68.7869 28.0334Z" fill="white"/>
<path d="M31.3203 32.8049V18.0234H38.4788L44.0324 27.2302L49.6282 18.0234H56.5333V32.8049H51.5498V22.5635L45.2149 32.8049H42.512L36.156 22.5635V32.8049H31.3203Z" fill="white"/>
<path d="M142.147 71.0913C142.147 71.4292 142.105 71.7459 141.999 72.0627C141.893 72.4005 141.682 72.7384 141.344 73.1185C140.985 73.5197 140.542 73.8365 139.993 74.1321C139.444 74.4066 138.684 74.66 137.67 74.85C136.678 75.0401 135.516 75.1246 134.186 75.1246H132.961C131.462 75.1246 130.174 74.9767 129.076 74.6811C127.978 74.3855 127.133 73.9632 126.521 73.4352C125.929 72.9073 125.486 72.3372 125.19 71.7248C124.916 71.1124 124.789 70.4156 124.789 69.6765V69.2542C124.789 68.5151 124.916 67.8605 125.169 67.2481C125.423 66.6358 125.845 66.0867 126.436 65.5588C127.006 65.0309 127.851 64.6297 128.928 64.3341C130.026 64.0384 131.314 63.8906 132.834 63.8906H134.144C139.528 63.8906 142.21 65.7911 142.21 69.6343V70.3522H129.498C129.815 71.7459 131.187 72.4428 133.616 72.4428H133.637C134.228 72.4428 134.777 72.4005 135.242 72.3161C135.706 72.2316 136.065 72.1471 136.319 72.0204C136.593 71.9149 136.804 71.7882 136.973 71.6615C137.121 71.5137 137.248 71.4081 137.29 71.3236C137.353 71.2391 137.396 71.1547 137.396 71.0702H142.147V71.0913ZM133.468 66.3612H133.447C131.272 66.3612 129.984 66.9525 129.582 68.1561H137.353C137.015 66.9525 135.727 66.3612 133.468 66.3612Z" fill="white"/>
<path d="M122.614 60.2344V74.9736H117.82V60.2344H122.614Z" fill="white"/>
<path d="M111.483 74.9108C109.561 74.9108 108.611 73.9184 108.611 71.8912V67.2034H106.352V64.2682H108.611V61.1641H113.362V64.2682H115.643V67.2034H113.362V71.0677C113.362 71.3844 113.426 71.6167 113.552 71.7645C113.679 71.9123 113.932 71.9968 114.334 71.9968H115.643V74.9108H111.483Z" fill="white"/>
<path d="M164.513 28.5344L164.516 39.5179H176.744L160.607 55.6541L168.382 63.4288L184.518 47.2925V59.5274L195.507 59.5284L195.491 28.5498L164.513 28.5344Z" fill="white"/>
</svg>
