<svg width="15" height="19" viewBox="0 0 15 19" fill="none" xmlns="http://www.w3.org/2000/svg">
<path d="M12.75 9.88C13.9926 9.88 15 10.9008 15 12.16V12.92C15 15.9166 12.2107 19 7.5 19C2.78926 19 0 15.9166 0 12.92V12.16C0 10.9008 1.00736 9.88 2.25 9.88H12.75ZM12.75 11.4H2.25C1.83579 11.4 1.5 11.7403 1.5 12.16V12.92C1.5 15.1052 3.64824 17.48 7.5 17.48C11.3518 17.48 13.5 15.1052 13.5 12.92V12.16C13.5 11.7403 13.1642 11.4 12.75 11.4ZM7.5 0C9.77817 0 11.625 1.87145 11.625 4.18C11.625 6.48855 9.77817 8.36 7.5 8.36C5.22183 8.36 3.375 6.48855 3.375 4.18C3.375 1.87145 5.22183 0 7.5 0ZM7.5 1.52C6.05025 1.52 4.875 2.71092 4.875 4.18C4.875 5.64908 6.05025 6.84 7.5 6.84C8.94975 6.84 10.125 5.64908 10.125 4.18C10.125 2.71092 8.94975 1.52 7.5 1.52Z" fill="white"/>
</svg>
