<svg width="185" height="101" viewBox="0 0 185 101" fill="none" xmlns="http://www.w3.org/2000/svg">
<path d="M128.027 7.93517L117.83 0H10.1967L0 7.93517V92.5435L10.1967 100.483H117.83L128.027 92.5435L138.219 100.483H174.8L184.996 92.5435V7.93517L174.8 0H138.219L128.027 7.93517Z" fill="white"/>
<path d="M127.335 13.9752L128.546 14.8346L129.719 13.9243L139.93 6H170.575L179 12.342V88.6544L170.575 95H139.992L129.805 86.1426L128.55 85.0512L127.248 86.0864L116.038 95H14.4248L6 88.6544V12.342L14.4246 6H116.099L127.335 13.9752Z" stroke="black" stroke-width="4"/>
<path d="M19.96 45.016V33.816H25.384L29.592 40.792L33.832 33.816H39.064V45.016H35.288V37.256L30.488 45.016H28.44L23.624 37.256V45.016H19.96ZM49.4069 37.128H52.9909L48.4789 46.28C48.0469 47.128 47.5989 47.752 47.1349 48.136C46.6709 48.52 46.0469 48.696 45.3109 48.696H40.1109V46.152H44.2069C44.4789 46.152 44.6229 46.056 44.6229 45.88C44.6229 45.784 44.4789 45.48 44.2229 44.968L40.1109 37.128H43.9509L46.7189 42.936L49.4069 37.128ZM67.0643 45.016V36.472H61.8163V33.816H76.1843V36.472H70.9203V45.016H67.0643ZM81.1114 33.832V45H77.3034V33.832H81.1114ZM120.158 40.248H124.27V40.408C124.27 40.744 124.222 41.096 124.094 41.448C123.982 41.8 123.742 42.2 123.374 42.648C123.006 43.08 122.542 43.464 121.966 43.8C121.374 44.136 120.574 44.424 119.534 44.664C118.494 44.888 117.31 45 115.966 45H90.8461C89.8541 45 88.9581 44.936 88.1261 44.792C87.3101 44.648 86.6221 44.472 86.0621 44.232C85.5021 44.008 85.0061 43.736 84.5581 43.4C84.1261 43.08 83.7901 42.744 83.5501 42.408C83.3101 42.072 83.1021 41.72 82.9421 41.32C82.7821 40.936 82.6701 40.6 82.6221 40.28C82.5741 39.96 82.5581 39.656 82.5581 39.336V38.888C82.5581 38.408 82.6061 37.944 82.7021 37.512C82.7981 37.08 83.0221 36.584 83.3741 36.056C83.7261 35.512 84.1741 35.048 84.7501 34.664C85.3101 34.28 86.1261 33.96 87.1661 33.688C88.2221 33.432 89.4381 33.304 90.8461 33.304H115.966C117.326 33.304 118.526 33.416 119.582 33.64C120.622 33.864 121.422 34.152 121.998 34.472C122.574 34.808 123.038 35.192 123.406 35.624C123.758 36.04 123.998 36.44 124.094 36.776C124.206 37.112 124.254 37.432 124.254 37.752V37.928H120.142C120.11 37.8 120.062 37.688 120.014 37.592C119.966 37.496 119.838 37.336 119.63 37.128C119.438 36.92 119.182 36.744 118.894 36.6C118.59 36.456 118.158 36.328 117.582 36.216C117.022 36.088 116.366 36.04 115.614 36.04C114.734 36.04 89.5341 36.12 88.9101 36.28C88.2701 36.456 87.8061 36.68 87.4861 36.984C87.1661 37.272 86.9421 37.576 86.8141 37.912C86.6861 38.232 86.6061 38.584 86.6061 38.968V39.16C86.6061 39.512 86.6861 39.864 86.8461 40.216C86.9901 40.552 87.2301 40.872 87.5501 41.192C87.8701 41.512 88.3501 41.768 88.9741 41.96C89.6141 42.152 114.798 42.248 115.646 42.248C118.19 42.248 119.694 41.608 120.142 40.296C120.158 40.28 120.158 40.264 120.158 40.248ZM135.07 45L130.366 40.824H129.198V45H125.726V33.944H129.198V37.48H130.51L134.894 33.944H139.31L132.926 39L139.614 45H135.07ZM140.616 33.784H153.496V36.328H144.392V37.992H153.288V40.552H144.392V42.392H153.672V45H140.616V33.784ZM159.814 45.016V36.472H154.566V33.816H168.934V36.472H163.67V45.016H159.814Z" fill="#16181B"/>
<path fill-rule="evenodd" clip-rule="evenodd" d="M119 67.4536L101.949 77.2978V73.9768L110.374 69.1131H76.75V65.5523H109.955L101.949 60.9303V57.6094L119 67.4536Z" fill="#262626"/>
</svg>
