<svg width="123" height="123" viewBox="0 0 123 123" fill="none" xmlns="http://www.w3.org/2000/svg">
<path d="M61.5 123C45.1908 122.995 29.5512 116.513 18.0189 104.981C6.48654 93.4488 0.00536574 77.8092 0 61.5C0.00536574 45.1908 6.48654 29.5512 18.0189 18.0189C29.5512 6.48654 45.1908 0.00536574 61.5 0C77.8092 0.00536574 93.4488 6.48654 104.981 18.0189C116.513 29.5512 122.995 45.1908 123 61.5C122.995 77.8092 116.513 93.4488 104.981 104.981C93.4488 116.513 77.8092 122.995 61.5 123ZM61.5 2.79361C49.889 2.79361 38.5387 6.23668 28.8845 12.6874C19.2303 19.1382 11.7057 28.3068 7.26237 39.034C2.81903 49.7612 1.65644 61.5651 3.92164 72.953C6.18684 84.341 11.7781 94.8014 19.9883 103.012C28.1986 111.222 38.659 116.813 50.0469 119.078C61.4349 121.344 73.2388 120.181 83.966 115.738C94.6931 111.294 103.862 103.77 110.313 94.1155C116.763 84.4613 120.206 73.111 120.206 61.5C120.206 45.9301 114.021 30.9979 103.012 19.9883C92.0021 8.97873 77.0699 2.79361 61.5 2.79361Z" fill="#0AFF00"/>
<path d="M61.5182 108C50.7593 108.004 40.3319 104.277 32.0129 97.4549C23.6939 90.6323 17.9981 81.1362 15.8962 70.5847C13.7942 60.0332 15.4161 49.0792 20.4856 39.5896C25.5551 30.1 33.7584 22.6619 43.6975 18.5428C53.6366 14.4238 64.6965 13.8787 74.9925 17.0006C85.2885 20.1224 94.1833 26.7178 100.161 35.663C106.139 44.6082 108.83 55.3496 107.776 66.0567C106.722 76.7637 101.987 86.7739 94.3795 94.3813C90.0737 98.7102 84.9525 102.143 79.3121 104.48C73.6716 106.818 67.6238 108.014 61.5182 108ZM61.5182 17.8724C52.8855 17.8724 44.4467 20.4322 37.2688 25.2283C30.091 30.0244 24.4966 36.8412 21.193 44.8168C17.8894 52.7924 17.025 61.5684 18.7092 70.0353C20.3933 78.5021 24.5504 86.2794 30.6546 92.3836C36.7588 98.4878 44.5361 102.645 53.0029 104.329C61.4698 106.013 70.2458 105.149 78.2214 101.845C86.197 98.5416 93.0138 92.9472 97.8099 85.7694C102.606 78.5916 105.166 70.1527 105.166 61.52C105.15 49.9488 100.546 38.8561 92.3641 30.6741C84.182 22.492 73.0894 17.8883 61.5182 17.8724Z" fill="#0AFF00"/>
<path d="M101.448 21.5542C90.9749 11.012 76.7463 5.05797 61.8871 5V11.862C71.6801 11.9384 81.2317 14.91 89.3397 20.4029C97.4478 25.8959 103.75 33.6646 107.453 42.7314C111.156 51.7982 112.095 61.7578 110.151 71.3569C108.207 80.956 103.467 89.7655 96.5282 96.6768C89.5892 103.588 80.7611 108.292 71.1548 110.197C61.5486 112.102 51.5935 111.123 42.5426 107.382C33.4916 103.642 25.7492 97.3077 20.2898 89.1768C14.8304 81.0458 11.8979 71.4815 11.8615 61.6876H5C5.0379 72.8462 8.37865 83.7437 14.601 93.0061C20.8233 102.269 29.6487 109.481 39.9642 113.734C50.2797 117.988 61.6236 119.091 72.5653 116.906C83.5071 114.72 93.5569 109.344 101.448 101.454C106.695 96.209 110.858 89.9811 113.698 83.1263C116.538 76.2715 118 68.9243 118 61.5043C118 54.0844 116.538 46.7372 113.698 39.8824C110.858 33.0276 106.695 26.7996 101.448 21.5542Z" fill="#9207FD"/>
<path d="M35 54.949H44.0562L35.7721 71H39.5281L48 54.1771V52H35V54.949Z" fill="#0AFF00"/>
<path d="M60.2463 59.5114C59.0109 58.8132 57.6114 58.4628 56.195 58.4969H55.2839L55.8267 54.907H62.6499V52H53.3261L52.0467 61.5405L52.7833 61.4429C53.5303 61.3666 54.2815 61.3405 55.0319 61.3649C58.0365 61.3649 59.6454 62.5745 59.6648 64.8572C59.6556 65.3331 59.5499 65.8022 59.3542 66.2355C59.1584 66.6688 58.8767 67.0573 58.5263 67.377C58.176 67.6968 57.7643 67.9411 57.3168 68.0949C56.8692 68.2487 56.3951 68.3088 55.9236 68.2715C54.674 68.2134 53.457 67.852 52.3763 67.2179L51.8917 66.9253L51 69.6372L51.2908 69.8323C52.7167 70.632 54.3306 71.0297 55.9624 70.9834C56.8571 71.0473 57.7554 70.9262 58.602 70.6275C59.4485 70.3288 60.2253 69.8588 60.8845 69.2465C61.5437 68.6342 62.0713 67.8925 62.435 67.0672C62.7986 66.2418 62.9905 65.3503 62.9988 64.4475C63.0191 63.4524 62.7746 62.47 62.2906 61.6021C61.8066 60.7341 61.1008 60.0123 60.2463 59.5114Z" fill="#0AFF00"/>
<path d="M81.3448 51L70 72H72.6753L84 51H81.3448Z" fill="#0AFF00"/>
<path d="M83.1843 58.6316C80.2208 58.6316 78.1628 61.2227 78.1628 64.9271C78.1628 68.9757 80.6324 71 83.0402 71C85.4481 71 88 68.9757 88 64.6842C88 61.0202 86.1684 58.6316 83.1843 58.6316ZM83.1843 68.4899C82.9912 68.4873 82.8006 68.4465 82.6238 68.37C82.447 68.2935 82.2877 68.1828 82.1553 68.0445C81.4396 67.1191 81.1019 65.9637 81.2086 64.8057C81.2086 62.9636 81.8054 61.1012 83.2666 61.1012C85.0159 61.1012 85.2011 63.6518 85.2011 64.7449C85.2011 65.8381 84.8513 68.4899 83.102 68.4899H83.1843ZM75.8784 56.9717C75.8784 53.2875 74.0056 51 71.0215 51C68.0374 51 66 53.5506 66 57.2348C66 61.4251 68.4696 63.3077 70.8775 63.3077C73.2853 63.3077 75.8784 61.3441 75.8784 56.9717ZM70.9392 53.4494C72.6885 53.4494 72.8737 56 72.8737 57.0931C72.8737 58.1862 72.6885 60.8381 70.9392 60.8381C70.5438 60.8293 70.1674 60.6696 69.8896 60.3927C69.1974 59.4573 68.8755 58.3059 68.9841 57.1538C68.8812 55.3117 69.4986 53.4494 70.8363 53.4494H70.9392Z" fill="#0AFF00"/>
</svg>
