<svg width="124" height="20" viewBox="0 0 124 20" fill="none" xmlns="http://www.w3.org/2000/svg">
<path d="M2.59766 19.1211H0.527344L1.50391 13.5547H4.27734L2.59766 19.1211ZM2.85156 7.73438C2.55208 7.73438 2.27539 7.66276 2.02148 7.51953C1.76758 7.36979 1.56576 7.17122 1.41602 6.92383C1.27279 6.66992 1.20443 6.39323 1.21094 6.09375C1.20443 5.80078 1.27279 5.5306 1.41602 5.2832C1.56576 5.0293 1.76758 4.83073 2.02148 4.6875C2.27539 4.54427 2.55208 4.47266 2.85156 4.47266C3.13802 4.47266 3.40495 4.54427 3.65234 4.6875C3.89974 4.83073 4.09831 5.0293 4.24805 5.2832C4.39779 5.5306 4.47266 5.80078 4.47266 6.09375C4.47266 6.39323 4.39779 6.66992 4.24805 6.92383C4.09831 7.17122 3.89974 7.36979 3.65234 7.51953C3.40495 7.66276 3.13802 7.73438 2.85156 7.73438ZM11.4453 0.859375H16.9922C18.0469 0.859375 18.9551 1.04818 19.7168 1.42578C20.4785 1.80339 21.0579 2.34049 21.4551 3.03711C21.8522 3.72721 22.0508 4.53776 22.0508 5.46875C22.0508 6.43229 21.8359 7.25911 21.4062 7.94922C20.9766 8.63932 20.3581 9.1569 19.5508 9.50195L22.5586 15H19.3164L16.6113 9.98047H14.375V15H11.4453V0.859375ZM16.4453 7.59766C18.1771 7.59766 19.0365 6.88802 19.0234 5.46875C19.0299 4.7526 18.8184 4.20898 18.3887 3.83789C17.959 3.46029 17.3112 3.26823 16.4453 3.26172H14.375V7.59766H16.4453ZM28.6523 15.2148C27.5781 15.2148 26.6471 14.9935 25.8594 14.5508C25.0716 14.1016 24.4661 13.4668 24.043 12.6465C23.6263 11.8262 23.418 10.8594 23.418 9.74609C23.418 8.66536 23.6263 7.71159 24.043 6.88477C24.4661 6.05143 25.0651 5.4069 25.8398 4.95117C26.6146 4.48893 27.513 4.25781 28.5352 4.25781C29.4857 4.25781 30.3353 4.45964 31.084 4.86328C31.8392 5.26042 32.4316 5.86263 32.8613 6.66992C33.2975 7.47721 33.5156 8.46354 33.5156 9.62891V10.4492H26.2695C26.2695 10.9766 26.3672 11.4355 26.5625 11.8262C26.7643 12.2168 27.0475 12.5195 27.4121 12.7344C27.7832 12.9427 28.2161 13.0469 28.7109 13.0469C29.1927 13.0404 29.6061 12.9427 29.9512 12.7539C30.2962 12.5586 30.5404 12.2982 30.6836 11.9727H33.4375C33.3008 12.6302 33.0208 13.2031 32.5977 13.6914C32.1745 14.1732 31.6243 14.5475 30.9473 14.8145C30.2767 15.0814 29.5117 15.2148 28.6523 15.2148ZM30.7812 8.63281C30.7812 8.20964 30.6868 7.82878 30.498 7.49023C30.3158 7.15169 30.0586 6.89128 29.7266 6.70898C29.3945 6.52018 29.0169 6.42578 28.5938 6.42578C28.1641 6.42578 27.7734 6.52344 27.4219 6.71875C27.0768 6.91406 26.8034 7.18099 26.6016 7.51953C26.3997 7.85807 26.2891 8.22917 26.2695 8.63281H30.7812ZM40.0977 19.1992C39.1341 19.1992 38.2943 19.0625 37.5781 18.7891C36.862 18.5156 36.2988 18.1283 35.8887 17.627C35.4785 17.1257 35.2474 16.543 35.1953 15.8789H38.0469C38.125 16.2891 38.3464 16.5951 38.7109 16.7969C39.082 17.0052 39.5638 17.1094 40.1562 17.1094C40.8594 17.1094 41.4062 16.9434 41.7969 16.6113C42.194 16.2858 42.3958 15.7682 42.4023 15.0586V13.125H42.2656C42.0508 13.6133 41.6895 14.0234 41.1816 14.3555C40.6738 14.6875 40.026 14.8503 39.2383 14.8438C38.418 14.8503 37.6823 14.6615 37.0312 14.2773C36.3802 13.8867 35.8659 13.3008 35.4883 12.5195C35.1107 11.7318 34.9219 10.7682 34.9219 9.62891C34.9219 8.47656 35.1139 7.49674 35.498 6.68945C35.8822 5.88216 36.3997 5.27669 37.0508 4.87305C37.7083 4.46289 38.4375 4.25781 39.2383 4.25781C40.0391 4.25781 40.6836 4.44336 41.1719 4.81445C41.6602 5.18555 42.0247 5.63802 42.2656 6.17188H42.3828V4.39453H45.2539V15.1172C45.2539 15.9961 45.0358 16.7415 44.5996 17.3535C44.1634 17.9655 43.5579 18.4245 42.7832 18.7305C42.015 19.043 41.1198 19.1992 40.0977 19.1992ZM37.8906 9.63867C37.8906 10.5762 38.0827 11.3151 38.4668 11.8555C38.8574 12.3958 39.4141 12.6693 40.1367 12.6758C40.8594 12.6693 41.416 12.4023 41.8066 11.875C42.2038 11.3477 42.4023 10.612 42.4023 9.66797C42.4023 8.71094 42.2038 7.95573 41.8066 7.40234C41.4095 6.84245 40.8529 6.5625 40.1367 6.5625C39.4206 6.5625 38.8672 6.84245 38.4766 7.40234C38.0859 7.96224 37.8906 8.70768 37.8906 9.63867ZM47.5 4.39453H50.3906V15H47.5V4.39453ZM48.9453 3.00781C48.6589 3.00781 48.3952 2.94271 48.1543 2.8125C47.9134 2.67578 47.7214 2.49674 47.5781 2.27539C47.4349 2.04753 47.3633 1.80339 47.3633 1.54297C47.3633 1.27604 47.4349 1.02865 47.5781 0.800781C47.7214 0.572917 47.9134 0.39388 48.1543 0.263672C48.3952 0.126953 48.6589 0.0585938 48.9453 0.0585938C49.2253 0.0585938 49.4857 0.126953 49.7266 0.263672C49.9674 0.39388 50.1562 0.572917 50.293 0.800781C50.4362 1.02865 50.5078 1.27604 50.5078 1.54297C50.5078 1.80339 50.4362 2.04753 50.293 2.27539C50.1562 2.49674 49.9674 2.67578 49.7266 2.8125C49.4857 2.94271 49.2253 3.00781 48.9453 3.00781ZM58.6914 7.53906C58.6263 7.16797 58.4408 6.87174 58.1348 6.65039C57.8288 6.42904 57.4349 6.3151 56.9531 6.30859C56.4844 6.3151 56.0938 6.41927 55.7812 6.62109C55.4688 6.81641 55.3125 7.07357 55.3125 7.39258C55.3125 7.64648 55.4167 7.86458 55.625 8.04688C55.8398 8.22266 56.1914 8.35938 56.6797 8.45703L58.5742 8.84766C59.6094 9.0625 60.3776 9.4043 60.8789 9.87305C61.3802 10.3418 61.6341 10.957 61.6406 11.7188C61.6406 12.4089 61.4421 13.0176 61.0449 13.5449C60.6543 14.0723 60.1042 14.4824 59.3945 14.7754C58.6849 15.0684 57.8646 15.2148 56.9336 15.2148C55.9896 15.2148 55.1725 15.0814 54.4824 14.8145C53.7988 14.541 53.2585 14.1536 52.8613 13.6523C52.4707 13.1445 52.2331 12.5456 52.1484 11.8555H55.0586C55.1237 12.2656 55.3158 12.5781 55.6348 12.793C55.9603 13.0078 56.3932 13.1185 56.9336 13.125C57.4674 13.1185 57.8939 13.0176 58.2129 12.8223C58.5319 12.6204 58.6914 12.3503 58.6914 12.0117C58.6914 11.7383 58.5742 11.5137 58.3398 11.3379C58.1055 11.1621 57.7409 11.0221 57.2461 10.918L55.4883 10.5664C54.4792 10.3646 53.7174 10.0098 53.2031 9.50195C52.6888 8.99414 52.4349 8.34635 52.4414 7.55859C52.4414 6.88802 52.6237 6.30534 52.9883 5.81055C53.3529 5.30924 53.8704 4.92513 54.541 4.6582C55.2181 4.39128 56.0091 4.25781 56.9141 4.25781C57.793 4.25781 58.5612 4.39128 59.2188 4.6582C59.8763 4.92513 60.3906 5.30599 60.7617 5.80078C61.1393 6.28906 61.3542 6.86849 61.4062 7.53906H58.6914ZM69.0039 6.5625H67.0117V11.7383C67.0052 12.1354 67.0866 12.4121 67.2559 12.5684C67.4316 12.7181 67.6823 12.7995 68.0078 12.8125C68.3073 12.8125 68.6914 12.793 69.1602 12.7539V15.0391C68.7305 15.1042 68.2064 15.1367 67.5879 15.1367C66.5072 15.1367 65.6576 14.8893 65.0391 14.3945C64.4206 13.8932 64.1146 13.1445 64.1211 12.1484V6.5625H62.6562V4.39453H64.1211V1.85547H67.0117V4.39453H69.0039V6.5625ZM70.8203 4.39453H73.6133V6.23047H73.7305C73.9193 5.59245 74.2415 5.10091 74.6973 4.75586C75.153 4.41081 75.6836 4.23828 76.2891 4.23828C76.6211 4.23828 76.9271 4.27083 77.207 4.33594V6.91406C77.0703 6.86849 76.8815 6.83268 76.6406 6.80664C76.3997 6.77409 76.1784 6.75781 75.9766 6.75781C75.5469 6.75781 75.1562 6.85221 74.8047 7.04102C74.4596 7.22982 74.1895 7.49349 73.9941 7.83203C73.8053 8.16406 73.7109 8.54167 73.7109 8.96484V15H70.8203V4.39453ZM77.8125 12.0312C77.819 10.9375 78.1868 10.14 78.916 9.63867C79.6452 9.13086 80.5924 8.84115 81.7578 8.76953C82.474 8.72396 83.3529 8.67839 84.3945 8.63281V7.77344C84.388 7.33073 84.2383 6.98893 83.9453 6.74805C83.6523 6.50065 83.2357 6.3737 82.6953 6.36719C82.207 6.3737 81.8099 6.48112 81.5039 6.68945C81.2044 6.89128 81.0156 7.17448 80.9375 7.53906H78.1836C78.2422 6.91406 78.457 6.35417 78.8281 5.85938C79.2057 5.36458 79.7298 4.97396 80.4004 4.6875C81.071 4.40104 81.862 4.25781 82.7734 4.25781C83.5872 4.25781 84.3327 4.38477 85.0098 4.63867C85.6934 4.89258 86.2402 5.28971 86.6504 5.83008C87.0605 6.36393 87.2656 7.03776 87.2656 7.85156V15H84.5312V13.5352H84.4531C84.1797 14.0495 83.7826 14.4564 83.2617 14.7559C82.7409 15.0553 82.1029 15.2018 81.3477 15.1953C80.6576 15.2018 80.0456 15.0846 79.5117 14.8438C78.9844 14.6029 78.5677 14.2448 78.2617 13.7695C77.9622 13.2943 77.8125 12.7148 77.8125 12.0312ZM80.5859 11.9531C80.5859 12.3503 80.7292 12.6562 81.0156 12.8711C81.3086 13.0859 81.6927 13.1966 82.168 13.2031C82.5977 13.2031 82.9818 13.1152 83.3203 12.9395C83.6654 12.7637 83.929 12.526 84.1113 12.2266C84.3001 11.9206 84.3945 11.582 84.3945 11.2109V10.4395C83.5221 10.4785 82.7995 10.5208 82.2266 10.5664C81.7122 10.612 81.3086 10.7552 81.0156 10.9961C80.7292 11.2305 80.5859 11.5495 80.5859 11.9531ZM95.0586 6.5625H93.0664V11.7383C93.0599 12.1354 93.1413 12.4121 93.3105 12.5684C93.4863 12.7181 93.737 12.7995 94.0625 12.8125C94.362 12.8125 94.7461 12.793 95.2148 12.7539V15.0391C94.7852 15.1042 94.2611 15.1367 93.6426 15.1367C92.5618 15.1367 91.7122 14.8893 91.0938 14.3945C90.4753 13.8932 90.1693 13.1445 90.1758 12.1484V6.5625H88.7109V4.39453H90.1758V1.85547H93.0664V4.39453H95.0586V6.5625ZM96.875 4.39453H99.7656V15H96.875V4.39453ZM98.3203 3.00781C98.0339 3.00781 97.7702 2.94271 97.5293 2.8125C97.2884 2.67578 97.0964 2.49674 96.9531 2.27539C96.8099 2.04753 96.7383 1.80339 96.7383 1.54297C96.7383 1.27604 96.8099 1.02865 96.9531 0.800781C97.0964 0.572917 97.2884 0.39388 97.5293 0.263672C97.7702 0.126953 98.0339 0.0585938 98.3203 0.0585938C98.6003 0.0585938 98.8607 0.126953 99.1016 0.263672C99.3424 0.39388 99.5312 0.572917 99.668 0.800781C99.8112 1.02865 99.8828 1.27604 99.8828 1.54297C99.8828 1.80339 99.8112 2.04753 99.668 2.27539C99.5312 2.49674 99.3424 2.67578 99.1016 2.8125C98.8607 2.94271 98.6003 3.00781 98.3203 3.00781ZM106.777 15.2148C105.723 15.2148 104.801 14.987 104.014 14.5312C103.232 14.069 102.63 13.4245 102.207 12.5977C101.79 11.7708 101.582 10.8138 101.582 9.72656C101.582 8.63932 101.79 7.68555 102.207 6.86523C102.63 6.03841 103.232 5.39714 104.014 4.94141C104.801 4.48568 105.723 4.25781 106.777 4.25781C107.832 4.25781 108.75 4.48568 109.531 4.94141C110.319 5.39714 110.924 6.03841 111.348 6.86523C111.777 7.68555 111.992 8.63932 111.992 9.72656C111.992 10.8138 111.777 11.7708 111.348 12.5977C110.924 13.4245 110.319 14.069 109.531 14.5312C108.75 14.987 107.832 15.2148 106.777 15.2148ZM104.512 9.72656C104.512 10.3581 104.596 10.918 104.766 11.4062C104.941 11.888 105.202 12.2689 105.547 12.5488C105.892 12.8288 106.309 12.9688 106.797 12.9688C107.272 12.9688 107.679 12.832 108.018 12.5586C108.356 12.2786 108.61 11.8978 108.779 11.416C108.955 10.9342 109.043 10.3841 109.043 9.76562C109.043 9.1276 108.958 8.5612 108.789 8.06641C108.62 7.5651 108.366 7.17448 108.027 6.89453C107.689 6.60807 107.279 6.46484 106.797 6.46484C106.309 6.46484 105.892 6.60482 105.547 6.88477C105.202 7.16471 104.941 7.55208 104.766 8.04688C104.596 8.53516 104.512 9.09505 104.512 9.72656ZM116.699 15H113.809V4.39453H116.562V6.25H116.68C116.921 5.63151 117.318 5.14648 117.871 4.79492C118.424 4.43685 119.089 4.25781 119.863 4.25781C120.599 4.25781 121.24 4.42057 121.787 4.74609C122.34 5.0651 122.767 5.52409 123.066 6.12305C123.366 6.72201 123.516 7.42839 123.516 8.24219V15H120.645V8.75C120.638 8.09245 120.465 7.58138 120.127 7.2168C119.795 6.8457 119.329 6.66016 118.73 6.66016C118.118 6.66016 117.627 6.85547 117.256 7.24609C116.885 7.63672 116.699 8.17708 116.699 8.86719V15Z" fill="white"/>
</svg>
