<svg width="23" height="16" viewBox="0 0 23 16" fill="none" xmlns="http://www.w3.org/2000/svg">
<path d="M18.8937 8.00029C18.8937 9.76829 20.3641 11.2003 22.1794 11.2003V14.4003C22.1794 14.6125 22.0929 14.816 21.9388 14.966C21.7848 15.116 21.5758 15.2003 21.358 15.2003H1.64369C1.42584 15.2003 1.2169 15.116 1.06286 14.966C0.908809 14.816 0.822266 14.6125 0.822266 14.4003V11.2003C2.63762 11.2003 4.10798 9.76829 4.10798 8.00029C4.10798 6.23229 2.63762 4.80029 0.822266 4.80029V1.60029C0.822266 1.38812 0.908809 1.18464 1.06286 1.03461C1.2169 0.884579 1.42584 0.800293 1.64369 0.800293H21.358C21.5758 0.800293 21.7848 0.884579 21.9388 1.03461C22.0929 1.18464 22.1794 1.38812 22.1794 1.60029V4.80029C20.3641 4.80029 18.8937 6.23229 18.8937 8.00029Z" fill="white"/>
<path d="M22.1786 5.6C22.3964 5.6 22.6054 5.51571 22.7594 5.36569C22.9135 5.21566 23 5.01217 23 4.8V1.6C23 0.7176 22.2632 0 21.3571 0H1.64286C0.736821 0 0 0.7176 0 1.6V4.8C0 5.01217 0.0865431 5.21566 0.240591 5.36569C0.394639 5.51571 0.603572 5.6 0.821429 5.6C2.18007 5.6 3.28571 6.6768 3.28571 8C3.28571 9.3232 2.18007 10.4 0.821429 10.4C0.603572 10.4 0.394639 10.4843 0.240591 10.6343C0.0865431 10.7843 0 10.9878 0 11.2V14.4C0 15.2824 0.736821 16 1.64286 16H21.3571C22.2632 16 23 15.2824 23 14.4V11.2C23 10.9878 22.9135 10.7843 22.7594 10.6343C22.6054 10.4843 22.3964 10.4 22.1786 10.4C20.8199 10.4 19.7143 9.3232 19.7143 8C19.7143 6.6768 20.8199 5.6 22.1786 5.6ZM21.3571 11.9192V14.4H16.4286V13.2C16.4286 13.0939 16.3853 12.9922 16.3083 12.9172C16.2313 12.8421 16.1268 12.8 16.0179 12.8H15.1964C15.0875 12.8 14.983 12.8421 14.906 12.9172C14.829 12.9922 14.7857 13.0939 14.7857 13.2V14.4H1.64286V11.9192C3.51489 11.548 4.92857 9.932 4.92857 8C4.92857 6.068 3.51489 4.452 1.64286 4.0808V1.6H14.7857V2.8C14.7857 2.90609 14.829 3.00783 14.906 3.08284C14.983 3.15786 15.0875 3.2 15.1964 3.2H16.0179C16.1268 3.2 16.2313 3.15786 16.3083 3.08284C16.3853 3.00783 16.4286 2.90609 16.4286 2.8V1.6H21.3571V4.0808C19.4851 4.4528 18.0714 6.068 18.0714 8C18.0714 9.932 19.4851 11.548 21.3571 11.9192Z" fill="white"/>
<path d="M16.428 5.1998V6.7998C16.428 6.90589 16.3847 7.00763 16.3077 7.08265C16.2307 7.15766 16.1262 7.1998 16.0173 7.1998H15.1959C15.0869 7.1998 14.9825 7.15766 14.9055 7.08265C14.8284 7.00763 14.7852 6.90589 14.7852 6.7998V5.1998C14.7852 5.09372 14.8284 4.99198 14.9055 4.91696C14.9825 4.84195 15.0869 4.7998 15.1959 4.7998H16.0173C16.1262 4.7998 16.2307 4.84195 16.3077 4.91696C16.3847 4.99198 16.428 5.09372 16.428 5.1998ZM16.0173 8.7998H15.1959C15.0869 8.7998 14.9825 8.84195 14.9055 8.91696C14.8284 8.99198 14.7852 9.09372 14.7852 9.1998V10.7998C14.7852 10.9059 14.8284 11.0076 14.9055 11.0826C14.9825 11.1577 15.0869 11.1998 15.1959 11.1998H16.0173C16.1262 11.1998 16.2307 11.1577 16.3077 11.0826C16.3847 11.0076 16.428 10.9059 16.428 10.7998V9.1998C16.428 9.09372 16.3847 8.99198 16.3077 8.91696C16.2307 8.84195 16.1262 8.7998 16.0173 8.7998Z" fill="black"/>
</svg>
