<svg width="23" height="17" viewBox="0 0 23 17" fill="none" xmlns="http://www.w3.org/2000/svg">
<path d="M22.1784 6.17865C22.3962 6.17865 22.6051 6.09211 22.7592 5.93807C22.9132 5.78402 22.9998 5.57509 22.9998 5.35723V2.07155C22.9998 1.16552 22.263 0.428711 21.3569 0.428711H1.64284C0.736814 0.428711 0 1.16552 0 2.07155V5.35723C0 5.57509 0.0865422 5.78402 0.240588 5.93807C0.394635 6.09211 0.603566 6.17865 0.82142 6.17865C2.18005 6.17865 3.28568 7.28429 3.28568 8.64291C3.28568 10.0015 2.18005 11.1072 0.82142 11.1072C0.603566 11.1072 0.394635 11.1937 0.240588 11.3478C0.0865422 11.5018 0 11.7107 0 11.9286V15.2143C0 16.1203 0.736814 16.8571 1.64284 16.8571H21.3569C22.263 16.8571 22.9998 16.1203 22.9998 15.2143V11.9286C22.9998 11.7107 22.9132 11.5018 22.7592 11.3478C22.6051 11.1937 22.3962 11.1072 22.1784 11.1072C20.8197 11.1072 19.7141 10.0015 19.7141 8.64291C19.7141 7.28429 20.8197 6.17865 22.1784 6.17865ZM21.3569 12.6671V15.2143H16.4284V13.9821C16.4284 13.8732 16.3851 13.7688 16.3081 13.6917C16.2311 13.6147 16.1266 13.5714 16.0177 13.5714H15.1963C15.0873 13.5714 14.9829 13.6147 14.9059 13.6917C14.8288 13.7688 14.7856 13.8732 14.7856 13.9821V15.2143H1.64284V12.6671C3.51486 12.2859 4.92852 10.6266 4.92852 8.64291C4.92852 6.65918 3.51486 4.99992 1.64284 4.61878V2.07155H14.7856V3.30368C14.7856 3.41261 14.8288 3.51708 14.9059 3.5941C14.9829 3.67112 15.0873 3.71439 15.1963 3.71439H16.0177C16.1266 3.71439 16.2311 3.67112 16.3081 3.5941C16.3851 3.51708 16.4284 3.41261 16.4284 3.30368V2.07155H21.3569V4.61878C19.4849 5.00074 18.0712 6.65918 18.0712 8.64291C18.0712 10.6266 19.4849 12.2859 21.3569 12.6671Z" fill="white"/>
<path d="M16.429 5.76789V7.41073C16.429 7.51966 16.3857 7.62412 16.3087 7.70115C16.2317 7.77817 16.1272 7.82144 16.0183 7.82144H15.1968C15.0879 7.82144 14.9834 7.77817 14.9064 7.70115C14.8294 7.62412 14.7861 7.51966 14.7861 7.41073V5.76789C14.7861 5.65896 14.8294 5.55449 14.9064 5.47747C14.9834 5.40045 15.0879 5.35718 15.1968 5.35718H16.0183C16.1272 5.35718 16.2317 5.40045 16.3087 5.47747C16.3857 5.55449 16.429 5.65896 16.429 5.76789ZM16.0183 9.46428H15.1968C15.0879 9.46428 14.9834 9.50755 14.9064 9.58457C14.8294 9.6616 14.7861 9.76606 14.7861 9.87499V11.5178C14.7861 11.6268 14.8294 11.7312 14.9064 11.8082C14.9834 11.8853 15.0879 11.9285 15.1968 11.9285H16.0183C16.1272 11.9285 16.2317 11.8853 16.3087 11.8082C16.3857 11.7312 16.429 11.6268 16.429 11.5178V9.87499C16.429 9.76606 16.3857 9.6616 16.3087 9.58457C16.2317 9.50755 16.1272 9.46428 16.0183 9.46428Z" fill="white"/>
</svg>
