<svg width="207" height="17" viewBox="0 0 207 17" fill="none" xmlns="http://www.w3.org/2000/svg">
<path d="M16.578 0.511999H21.814V7.926C21.814 8.564 21.726 9.224 21.572 9.884C21.418 10.522 21.11 11.248 20.648 11.996C20.186 12.766 19.592 13.426 18.866 13.998C18.14 14.57 17.15 15.054 15.896 15.428C14.62 15.824 13.168 16 11.54 16H10.726C9.494 16 8.35 15.912 7.338 15.714C6.304 15.516 5.446 15.252 4.742 14.922C4.038 14.592 3.4 14.196 2.872 13.734C2.322 13.272 1.904 12.788 1.596 12.326C1.266 11.842 1.024 11.336 0.804 10.786C0.606 10.236 0.474 9.73 0.408 9.29C0.342 8.828 0.32 8.388 0.32 7.926V0.511999H5.556V7.64C5.556 8.19 5.644 8.696 5.798 9.158C5.952 9.642 6.216 10.104 6.59 10.566C6.964 11.028 7.536 11.38 8.328 11.644C9.098 11.908 10.022 12.062 11.1 12.062C12.156 12.062 13.058 11.908 13.828 11.644C14.576 11.38 15.148 11.028 15.522 10.566C15.918 10.104 16.182 9.642 16.336 9.158C16.49 8.696 16.578 8.19 16.578 7.64V0.511999ZM31.509 16.264C26.317 16.264 23.743 14.966 23.743 12.326V12.194H28.913C28.913 13.206 29.947 13.712 32.015 13.712H32.059C32.917 13.712 33.599 13.646 34.083 13.536C34.567 13.426 34.875 13.316 35.007 13.184C35.117 13.03 35.183 12.876 35.183 12.656V12.612C35.183 12.304 35.007 12.062 34.677 11.908C34.325 11.754 33.621 11.666 32.521 11.644L30.365 11.6C29.111 11.578 28.033 11.468 27.131 11.248C26.251 11.05 25.569 10.764 25.107 10.434C24.667 10.082 24.337 9.73 24.139 9.356C23.941 8.982 23.853 8.586 23.853 8.146V8.014C23.853 7.64 23.897 7.288 23.985 6.98C24.095 6.694 24.293 6.364 24.623 6.056C24.953 5.748 25.371 5.484 25.921 5.264C26.449 5.066 27.197 4.89 28.143 4.758C29.089 4.626 30.211 4.56 31.487 4.56H32.389C37.449 4.56 39.979 5.704 39.979 8.036V8.19H34.853C34.831 8.036 34.787 7.926 34.721 7.816C34.677 7.728 34.545 7.596 34.369 7.464C34.193 7.332 33.885 7.244 33.467 7.156C33.027 7.09 32.499 7.046 31.883 7.046H31.861C30.717 7.046 29.947 7.112 29.551 7.244C29.177 7.354 28.979 7.574 28.979 7.882V7.904C28.979 8.19 29.155 8.41 29.507 8.542C29.881 8.696 30.541 8.784 31.509 8.806L33.665 8.85C35.491 8.872 36.899 9.026 37.889 9.312C38.901 9.598 39.583 9.972 39.913 10.434C40.243 10.896 40.419 11.534 40.419 12.326V12.458C40.419 13.008 40.309 13.514 40.089 13.932C39.869 14.35 39.495 14.746 38.945 15.12C38.395 15.494 37.581 15.78 36.481 15.978C35.381 16.176 34.039 16.264 32.433 16.264H31.509ZM60.2509 11.908C60.2509 12.26 60.2069 12.59 60.0969 12.92C59.9869 13.272 59.7669 13.624 59.4149 14.02C59.0409 14.438 58.5789 14.768 58.0069 15.076C57.4349 15.362 56.6429 15.626 55.5869 15.824C54.5529 16.022 53.3429 16.11 51.9569 16.11H50.6809C49.1189 16.11 47.7769 15.956 46.6329 15.648C45.4889 15.34 44.6089 14.9 43.9709 14.35C43.3549 13.8 42.8929 13.206 42.5849 12.568C42.2989 11.93 42.1669 11.204 42.1669 10.434V9.994C42.1669 9.224 42.2989 8.542 42.5629 7.904C42.8269 7.266 43.2669 6.694 43.8829 6.144C44.4769 5.594 45.3569 5.176 46.4789 4.868C47.6229 4.56 48.9649 4.406 50.5489 4.406H51.9129C57.5229 4.406 60.3169 6.386 60.3169 10.39V11.138H47.0729C47.4029 12.59 48.8329 13.316 51.3629 13.316H51.3849C52.0009 13.316 52.5729 13.272 53.0569 13.184C53.5409 13.096 53.9149 13.008 54.1789 12.876C54.4649 12.766 54.6849 12.634 54.8609 12.502C55.0149 12.348 55.1469 12.238 55.1909 12.15C55.2569 12.062 55.3009 11.974 55.3009 11.886H60.2509V11.908ZM51.2089 6.98H51.1869C48.9209 6.98 47.5789 7.596 47.1609 8.85H55.2569C54.9049 7.596 53.5629 6.98 51.2089 6.98ZM71.8831 4.296H77.0971V6.914C77.0971 6.914 70.4091 6.914 69.8371 6.98C69.2651 7.046 68.3851 7.552 67.9451 8.08C67.5051 8.608 67.2851 9.246 67.2851 10.038V15.89H62.5771V4.538H67.2631V6.54C67.4611 6.254 67.7031 5.946 67.9891 5.66C68.2971 5.374 68.8031 5.066 69.5071 4.758C70.2331 4.45 71.0031 4.296 71.8831 4.296ZM101.244 16.264C99.9018 16.264 98.6918 16.176 97.5698 15.978C96.4478 15.78 95.5018 15.538 94.7538 15.23C93.9838 14.9 93.3238 14.526 92.7298 14.086C92.1358 13.624 91.6738 13.184 91.3438 12.722C91.0138 12.26 90.7498 11.776 90.5298 11.248C90.3098 10.72 90.1558 10.236 90.0898 9.818C90.0238 9.378 90.0018 8.96 90.0018 8.542V7.926C90.0018 7.266 90.0678 6.628 90.1998 6.034C90.3318 5.44 90.6398 4.78 91.1018 4.054C91.5858 3.328 92.2018 2.69 92.9718 2.162C93.7418 1.634 94.8418 1.194 96.2718 0.842C97.6798 0.467999 99.3518 0.291999 101.244 0.291999H102.168C104.038 0.291999 105.666 0.446 107.096 0.754C108.504 1.084 109.604 1.458 110.374 1.898C111.144 2.36 111.782 2.866 112.266 3.46C112.772 4.054 113.08 4.582 113.234 5.044C113.366 5.506 113.432 5.946 113.432 6.364V6.606H107.844C107.8 6.43 107.756 6.298 107.69 6.166C107.624 6.034 107.448 5.814 107.162 5.528C106.876 5.242 106.546 5 106.15 4.802C105.754 4.604 105.16 4.428 104.39 4.274C103.598 4.12 102.718 4.032 101.706 4.032C100.496 4.032 99.4618 4.142 98.6258 4.384C97.7678 4.604 97.1298 4.912 96.6898 5.308C96.2718 5.726 95.9638 6.144 95.7878 6.584C95.5898 7.024 95.5018 7.508 95.5018 8.036V8.278C95.5018 8.784 95.6118 9.268 95.8098 9.73C96.0078 10.192 96.3378 10.632 96.7778 11.072C97.2178 11.512 97.8558 11.864 98.7138 12.128C99.5718 12.392 100.584 12.524 101.75 12.524C105.204 12.524 107.228 11.622 107.844 9.84C107.866 9.818 107.866 9.796 107.866 9.774H113.454V9.994C113.454 10.456 113.388 10.94 113.234 11.424C113.058 11.908 112.728 12.436 112.244 13.052C111.738 13.646 111.1 14.174 110.308 14.636C109.538 15.076 108.438 15.472 107.03 15.802C105.622 16.11 103.994 16.264 102.168 16.264H101.244ZM150.985 4.692C156.155 4.692 158.729 6.518 158.729 10.126V10.5C158.729 14.196 156.155 16.066 150.985 16.066H122.561C121.351 16.066 120.295 15.934 119.349 15.714C118.425 15.472 117.677 15.186 117.105 14.812C116.555 14.46 116.093 14.02 115.719 13.514C115.367 13.008 115.125 12.524 114.993 12.018C114.861 11.534 114.795 11.028 114.795 10.5V10.126C114.795 9.598 114.861 9.092 114.993 8.608C115.125 8.146 115.367 7.64 115.719 7.156C116.071 6.672 116.533 6.232 117.105 5.88C117.655 5.528 118.403 5.242 119.327 5.022C120.273 4.802 121.329 4.692 122.539 4.692H150.985ZM154.681 10.368V10.28C154.681 9.598 154.373 9.004 153.735 8.542C153.163 8.102 152.217 7.882 150.941 7.838C150.853 7.838 123.023 7.838 122.935 7.838H122.913C121.461 7.838 120.405 8.08 119.789 8.542C119.173 9.004 118.865 9.576 118.865 10.28V10.368C118.865 11.05 119.173 11.644 119.811 12.128C120.427 12.634 121.461 12.876 122.913 12.876C123.023 12.876 150.875 12.876 150.985 12.876C152.261 12.832 153.163 12.59 153.735 12.128C154.373 11.644 154.681 11.05 154.681 10.368ZM132.945 12.458L135.981 8.278H140.557L137.521 12.458H132.945ZM174.405 0.467999H179.443V15.824H174.449V14.13C174.339 14.284 174.141 14.438 173.899 14.636C173.635 14.812 173.283 15.032 172.821 15.252C172.337 15.494 171.743 15.692 170.973 15.846C170.203 16 169.367 16.088 168.465 16.088H168.179C165.627 16.088 163.713 15.56 162.459 14.482C161.183 13.426 160.567 12.04 160.567 10.368V9.972C160.567 8.344 161.161 7.024 162.349 5.99C163.559 4.956 165.429 4.45 167.981 4.45H168.333C170.929 4.45 172.953 5.044 174.405 6.21V0.467999ZM174.405 10.214C174.405 9.444 173.987 8.762 173.173 8.212C172.337 7.64 171.237 7.354 169.829 7.354H169.719C168.245 7.354 167.211 7.618 166.595 8.168C166.001 8.696 165.693 9.378 165.693 10.214V10.28C165.693 11.05 166.023 11.732 166.705 12.304C167.365 12.876 168.399 13.162 169.763 13.162H169.873C171.281 13.162 172.381 12.876 173.195 12.304C174.009 11.732 174.405 11.05 174.405 10.28V10.214ZM199.792 11.908C199.792 12.26 199.748 12.59 199.638 12.92C199.528 13.272 199.308 13.624 198.956 14.02C198.582 14.438 198.12 14.768 197.548 15.076C196.976 15.362 196.184 15.626 195.128 15.824C194.094 16.022 192.884 16.11 191.498 16.11H190.222C188.66 16.11 187.318 15.956 186.174 15.648C185.03 15.34 184.15 14.9 183.512 14.35C182.896 13.8 182.434 13.206 182.126 12.568C181.84 11.93 181.708 11.204 181.708 10.434V9.994C181.708 9.224 181.84 8.542 182.104 7.904C182.368 7.266 182.808 6.694 183.424 6.144C184.018 5.594 184.898 5.176 186.02 4.868C187.164 4.56 188.506 4.406 190.09 4.406H191.454C197.064 4.406 199.858 6.386 199.858 10.39V11.138H186.614C186.944 12.59 188.374 13.316 190.904 13.316H190.926C191.542 13.316 192.114 13.272 192.598 13.184C193.082 13.096 193.456 13.008 193.72 12.876C194.006 12.766 194.226 12.634 194.402 12.502C194.556 12.348 194.688 12.238 194.732 12.15C194.798 12.062 194.842 11.974 194.842 11.886H199.792V11.908ZM190.75 6.98H190.728C188.462 6.98 187.12 7.596 186.702 8.85H194.798C194.446 7.596 193.104 6.98 190.75 6.98ZM206.43 4.714V7.75H201.876V4.714H206.43ZM203.13 14.812C203.526 14.108 203.768 13.558 203.834 13.118H201.876V10.082H206.43V12.59C206.43 12.92 206.342 13.294 206.144 13.712C205.968 14.13 205.77 14.504 205.528 14.812H203.13Z" fill="white"/>
</svg>
