<svg width="419" height="31" viewBox="0 0 419 31" fill="none" xmlns="http://www.w3.org/2000/svg">
<g filter="url(#filter0_d_173_249)">
<path d="M18.0495 16.6969H12.0695L4.96245 0.803858H10.8735L15.3355 11.7289L18.4865 3.44886H25.4785L28.9285 11.4299L33.2985 0.803858H38.6345L31.6195 16.6969H26.1685L22.4655 7.26686H21.5455L18.0495 16.6969ZM58.7548 12.6029C58.7548 12.9709 58.7088 13.3159 58.5938 13.6609C58.4788 14.0289 58.2488 14.3969 57.8808 14.8109C57.4898 15.2479 57.0068 15.5929 56.4088 15.9149C55.8108 16.2139 54.9828 16.4899 53.8788 16.6969C52.7978 16.9039 51.5328 16.9959 50.0838 16.9959H48.7498C47.1168 16.9959 45.7138 16.8349 44.5178 16.5129C43.3218 16.1909 42.4018 15.7309 41.7348 15.1559C41.0908 14.5809 40.6078 13.9599 40.2858 13.2929C39.9868 12.6259 39.8488 11.8669 39.8488 11.0619V10.6019C39.8488 9.79686 39.9868 9.08386 40.2628 8.41686C40.5388 7.74986 40.9988 7.15186 41.6428 6.57686C42.2638 6.00186 43.1838 5.56486 44.3568 5.24286C45.5528 4.92086 46.9558 4.75986 48.6118 4.75986H50.0378C55.9028 4.75986 58.8238 6.82986 58.8238 11.0159V11.7979H44.9778C45.3228 13.3159 46.8178 14.0749 49.4628 14.0749H49.4858C50.1298 14.0749 50.7278 14.0289 51.2338 13.9369C51.7398 13.8449 52.1308 13.7529 52.4068 13.6149C52.7058 13.4999 52.9358 13.3619 53.1198 13.2239C53.2808 13.0629 53.4188 12.9479 53.4648 12.8559C53.5338 12.7639 53.5798 12.6719 53.5798 12.5799H58.7548V12.6029ZM49.3018 7.45086H49.2788C46.9098 7.45086 45.5068 8.09486 45.0698 9.40586H53.5338C53.1658 8.09486 51.7628 7.45086 49.3018 7.45086ZM66.4077 0.780858V16.8349H61.1867V0.780858H66.4077ZM74.6435 8.48586C74.0455 9.01486 73.7465 9.72786 73.7465 10.5559V10.7169C73.7465 11.5909 74.0455 12.3499 74.6435 12.9479C75.2415 13.5459 76.1845 13.8449 77.4955 13.8449H77.5645C77.6795 13.8449 105.325 13.8449 105.44 13.8449C107.464 13.7529 108.637 13.0399 108.959 11.6829H113.973V11.7289C113.973 12.1429 113.927 12.5339 113.835 12.9249C113.743 13.3159 113.536 13.7529 113.191 14.2589C112.869 14.7879 112.409 15.2249 111.857 15.5929C111.305 15.9609 110.477 16.2829 109.419 16.5589C108.361 16.8349 107.119 16.9499 105.67 16.9499H76.9665C75.6785 16.9499 74.5515 16.8349 73.5395 16.5819C72.5505 16.3289 71.7455 16.0069 71.1705 15.5929C70.5955 15.2019 70.1125 14.7189 69.7215 14.1669C69.3535 13.6149 69.1005 13.0859 68.9625 12.5569C68.8245 12.0279 68.7785 11.4989 68.7785 10.9239V10.4869C68.7785 9.93486 68.8245 9.38286 68.9625 8.87686C69.1005 8.34786 69.3535 7.81886 69.7215 7.28986C70.0895 6.76086 70.5725 6.30086 71.1705 5.90986C71.7455 5.51886 72.5505 5.21986 73.5395 4.96686C74.5285 4.71386 75.6555 4.59886 76.9435 4.59886L105.693 4.59886C107.096 4.59886 108.315 4.71386 109.373 4.98986C110.431 5.24286 111.236 5.56486 111.788 5.93286C112.363 6.30086 112.8 6.73786 113.168 7.24386C113.513 7.74986 113.72 8.18686 113.835 8.55486C113.927 8.94586 113.973 9.33686 113.973 9.70486V9.77386H108.959C108.637 8.43986 107.441 7.72686 105.371 7.65786C105.279 7.65786 77.6565 7.65786 77.5645 7.65786H77.4955C76.1845 7.65786 75.2185 7.93386 74.6435 8.48586ZM126.609 16.9499H124.953C123.55 16.9499 122.285 16.8119 121.204 16.5589C120.123 16.3059 119.249 16.0069 118.582 15.6159C117.915 15.2249 117.386 14.7419 116.972 14.2129C116.535 13.6609 116.259 13.1319 116.098 12.6029C115.937 12.0739 115.868 11.5219 115.868 10.9469V10.5559C115.868 9.98086 115.937 9.45186 116.098 8.92286C116.259 8.39386 116.535 7.88786 116.949 7.35886C117.363 6.80686 117.892 6.36986 118.559 5.97886C119.226 5.58786 120.1 5.28886 121.181 5.05886C122.262 4.80586 123.527 4.69086 124.93 4.69086H126.609C132.635 4.69086 135.648 6.64586 135.648 10.5559V10.9469C135.648 14.9489 132.635 16.9499 126.609 16.9499ZM125.781 13.8219C127.414 13.8219 128.587 13.5229 129.277 12.9249C129.99 12.3499 130.335 11.6369 130.335 10.8319V10.7169C130.335 9.88886 129.99 9.17586 129.277 8.62386C128.587 8.04886 127.414 7.77286 125.804 7.77286H125.781C124.125 7.77286 122.952 8.04886 122.262 8.60086C121.572 9.15286 121.227 9.86586 121.227 10.7169V10.8319C121.227 11.6369 121.572 12.3499 122.285 12.9249C122.975 13.5229 124.148 13.8219 125.781 13.8219ZM137.576 16.7659V5.17386H142.751V7.17486C144.407 5.65686 146.408 4.92086 148.777 4.92086H148.938C151.399 4.92086 153.078 5.67986 153.998 7.22086C155.677 5.67986 157.793 4.92086 160.369 4.92086H160.553C162.508 4.92086 163.957 5.35786 164.923 6.25486C165.912 7.15186 166.395 8.20986 166.395 9.45186V16.7659H161.105V11.0389C161.105 9.10686 160.139 8.14086 158.23 8.14086C157.126 8.14086 156.229 8.43986 155.585 9.03786C154.941 9.61286 154.619 10.3719 154.619 11.2919V16.7659H149.329V11.0389C149.329 9.10686 148.363 8.14086 146.431 8.14086C145.304 8.14086 144.43 8.43986 143.786 9.03786C143.142 9.61286 142.797 10.3719 142.797 11.2919V16.7659H137.576ZM187.658 12.6029C187.658 12.9709 187.612 13.3159 187.497 13.6609C187.382 14.0289 187.152 14.3969 186.784 14.8109C186.393 15.2479 185.91 15.5929 185.312 15.9149C184.714 16.2139 183.886 16.4899 182.782 16.6969C181.701 16.9039 180.436 16.9959 178.987 16.9959H177.653C176.02 16.9959 174.617 16.8349 173.421 16.5129C172.225 16.1909 171.305 15.7309 170.638 15.1559C169.994 14.5809 169.511 13.9599 169.189 13.2929C168.89 12.6259 168.752 11.8669 168.752 11.0619V10.6019C168.752 9.79686 168.89 9.08386 169.166 8.41686C169.442 7.74986 169.902 7.15186 170.546 6.57686C171.167 6.00186 172.087 5.56486 173.26 5.24286C174.456 4.92086 175.859 4.75986 177.515 4.75986H178.941C184.806 4.75986 187.727 6.82986 187.727 11.0159V11.7979H173.881C174.226 13.3159 175.721 14.0749 178.366 14.0749H178.389C179.033 14.0749 179.631 14.0289 180.137 13.9369C180.643 13.8449 181.034 13.7529 181.31 13.6149C181.609 13.4999 181.839 13.3619 182.023 13.2239C182.184 13.0629 182.322 12.9479 182.368 12.8559C182.437 12.7639 182.483 12.6719 182.483 12.5799H187.658V12.6029ZM178.205 7.45086H178.182C175.813 7.45086 174.41 8.09486 173.973 9.40586H182.437C182.069 8.09486 180.666 7.45086 178.205 7.45086ZM249.456 10.6019V7.54286H261.945V16.6049H257.943C257.943 16.6049 257.92 15.1559 257.874 14.0749C256.103 15.9609 253.251 16.9039 249.364 16.9039H213.714C211.874 16.9039 210.241 16.7199 208.815 16.3519C207.389 15.9839 206.239 15.5239 205.388 14.9719C204.537 14.3969 203.847 13.7529 203.318 13.0169C202.766 12.2579 202.398 11.5449 202.191 10.8549C202.007 10.1649 201.915 9.47486 201.915 8.76186V8.14086C201.915 7.42786 201.984 6.73786 202.145 6.09386C202.329 5.42686 202.674 4.71386 203.203 3.97786C203.732 3.21886 204.422 2.57486 205.273 2.04586C206.101 1.49386 207.274 1.03386 208.746 0.688858C210.08 0.366858 211.575 0.182859 213.254 0.136858C213.484 0.136858 213.691 0.136858 213.921 0.136858L250.077 0.136858C251.963 0.136858 253.619 0.274858 255.068 0.573858C256.517 0.872858 257.644 1.21786 258.472 1.65486C259.277 2.06886 259.967 2.57486 260.473 3.17286C261.002 3.74786 261.347 4.29986 261.531 4.78286C261.715 5.26586 261.807 5.77186 261.807 6.27786V6.30086H255.896C255.321 4.75986 253.205 3.97786 249.594 3.97786C249.272 3.97786 213.852 4.00086 213.553 4.00086C209.666 4.20786 207.711 5.65686 207.711 8.37086V8.60086C207.711 9.79686 208.263 10.8089 209.367 11.6599C210.356 12.4419 211.805 12.8559 213.691 12.9479C213.921 12.9479 249.295 12.9479 249.548 12.9479C250.537 12.9479 251.434 12.8789 252.262 12.7639C253.09 12.6259 253.734 12.4649 254.24 12.2809C254.723 12.0969 255.137 11.8899 255.482 11.6599C255.827 11.4299 256.08 11.2229 256.195 11.0619C256.333 10.8779 256.402 10.7399 256.402 10.6479V10.6019H249.456ZM269.477 0.780858V4.09286H264.256V0.780858H269.477ZM269.477 5.21986V16.8349H264.256V5.21986H269.477ZM282.474 3.63286H280.427C280.036 3.63286 279.76 3.70186 279.622 3.83986C279.507 3.97786 279.438 4.23086 279.438 4.57586V5.21986H282.474V8.41686H279.438V16.8349H274.263V8.41686H271.848V5.21986H274.263V3.83986C274.263 1.79286 275.735 0.780858 278.656 0.780858H282.474V3.63286ZM290.419 16.7659C288.326 16.7659 287.291 15.6849 287.291 13.4769V8.37086H284.83V5.17386H287.291V1.79286H292.466V5.17386L294.95 5.17386V8.37086H292.466V12.5799C292.466 12.9249 292.535 13.1779 292.673 13.3389C292.811 13.4999 293.087 13.5919 293.524 13.5919H294.95V16.7659H290.419ZM309.601 5.56486H314.753L308.267 18.7209C307.646 19.9399 307.002 20.8369 306.335 21.3889C305.668 21.9409 304.771 22.1939 303.713 22.1939H296.238V18.5369H302.126C302.517 18.5369 302.724 18.3989 302.724 18.1459C302.724 18.0079 302.517 17.5709 302.149 16.8349L296.238 5.56486H301.758L305.737 13.9139L309.601 5.56486ZM375.506 10.1189C375.782 10.6479 375.897 11.2459 375.897 11.9129V12.2119C375.897 15.3399 373.459 16.8809 368.537 16.8809H315.913V0.619859L368.399 0.619859C370.745 0.619859 372.424 0.964859 373.413 1.65486C374.402 2.36786 374.908 3.24186 374.908 4.34586V4.64486C374.908 5.15086 374.793 5.58786 374.609 6.00186C374.402 6.39286 374.126 6.71486 373.804 6.94486C373.459 7.19786 373.16 7.38186 372.884 7.51986C372.631 7.63486 372.355 7.74986 372.079 7.81886C372.47 7.91086 372.838 8.02586 373.206 8.18686C373.574 8.34786 373.988 8.57786 374.425 8.87686C374.862 9.17586 375.23 9.58986 375.506 10.1189ZM321.479 4.06986V6.71486L367.433 6.71486C368.721 6.71486 369.365 6.27786 369.365 5.40386V5.35786C369.365 4.48386 368.721 4.06986 367.433 4.06986L321.479 4.06986ZM370.124 11.7519V11.6599C370.124 10.6709 369.388 10.1649 367.916 10.1649L321.479 10.1649V13.3619L367.916 13.3619C368.744 13.3619 369.319 13.2009 369.641 12.8789C369.963 12.5569 370.124 12.1659 370.124 11.7519ZM394.011 13.7759H394.655V17.0189H390.63C389.526 17.0189 388.905 16.4669 388.721 15.3859C388.353 15.8229 387.732 16.2599 386.835 16.6509C385.938 17.0419 384.719 17.2259 383.178 17.2259H382.902C381.016 17.2259 379.613 16.8579 378.693 16.1219C377.773 15.3859 377.336 14.4659 377.336 13.3389V13.1779C377.336 12.0969 377.704 11.2689 378.486 10.6939C379.268 10.1419 380.556 9.77386 382.35 9.61286L387.847 9.10686C388.33 9.03786 388.583 8.83086 388.583 8.48586C388.583 8.27886 388.537 8.14086 388.445 8.00286C388.353 7.88786 388.054 7.77286 387.571 7.68086C387.088 7.56586 386.375 7.49686 385.478 7.49686L377.336 7.51986V4.75986H385.984C387.318 4.75986 388.468 4.82886 389.411 4.98986C390.377 5.15086 391.09 5.35786 391.596 5.58786C392.102 5.84086 392.493 6.13986 392.769 6.50786C393.068 6.89886 393.229 7.22086 393.298 7.51986C393.344 7.81886 393.39 8.18686 393.39 8.60086V13.1779C393.39 13.5689 393.597 13.7759 394.011 13.7759ZM388.583 11.7059V11.3379L383.845 12.0739C383.178 12.1659 382.718 12.3039 382.442 12.4649C382.189 12.6259 382.051 12.8559 382.051 13.1779V13.2009C382.051 13.5689 382.212 13.8909 382.557 14.1669C382.902 14.4199 383.454 14.5579 384.236 14.5579C385.501 14.5579 386.559 14.2589 387.364 13.6839C388.192 13.1089 388.583 12.4649 388.583 11.7059ZM396.304 5.17386H401.479V7.15186C403.112 5.65686 405.205 4.92086 407.758 4.92086H407.942C409.989 4.92086 411.53 5.35786 412.542 6.23186C413.577 7.12886 414.083 8.18686 414.083 9.45186V16.7659H408.793V11.0389C408.793 10.1189 408.517 9.40586 407.965 8.89986C407.39 8.39386 406.539 8.14086 405.412 8.14086C404.239 8.14086 403.296 8.43986 402.583 9.01486C401.893 9.58986 401.525 10.3489 401.525 11.2919V16.7659H396.304V5.17386Z" fill="white"/>
</g>
<defs>
<filter id="filter0_d_173_249" x="0.962891" y="0.136719" width="417.12" height="30.0571" filterUnits="userSpaceOnUse" color-interpolation-filters="sRGB">
<feFlood flood-opacity="0" result="BackgroundImageFix"/>
<feColorMatrix in="SourceAlpha" type="matrix" values="0 0 0 0 0 0 0 0 0 0 0 0 0 0 0 0 0 0 127 0" result="hardAlpha"/>
<feOffset dy="4"/>
<feGaussianBlur stdDeviation="2"/>
<feComposite in2="hardAlpha" operator="out"/>
<feColorMatrix type="matrix" values="0 0 0 0 0 0 0 0 0 0 0 0 0 0 0 0 0 0 0.25 0"/>
<feBlend mode="normal" in2="BackgroundImageFix" result="effect1_dropShadow_173_249"/>
<feBlend mode="normal" in="SourceGraphic" in2="effect1_dropShadow_173_249" result="shape"/>
</filter>
</defs>
</svg>
